<?xml version="1.0" encoding="UTF-8"?>
<!DOCTYPE svg PUBLIC "-//W3C//DTD SVG 1.1//EN" "http://www.w3.org/Graphics/SVG/1.1/DTD/svg11.dtd">
<!-- Creator: CorelDRAW X5 -->
<svg xmlns="http://www.w3.org/2000/svg" xml:space="preserve" width="91.0177mm" height="37.2711mm" style="shape-rendering:geometricPrecision; text-rendering:geometricPrecision; image-rendering:optimizeQuality; fill-rule:evenodd; clip-rule:evenodd"
viewBox="0 0 150.58 61.6612"
 xmlns:xlink="http://www.w3.org/1999/xlink">
 <defs>
  <style type="text/css">
   <![CDATA[
    .str3 {stroke:#2B2A29;stroke-width:0.126065}
    .str1 {stroke:#FEFEFE;stroke-width:0.126065}
    .str2 {stroke:#FEFEFE;stroke-width:0.16544}
    .str4 {stroke:#7E71B1;stroke-width:0.33088}
    .str0 {stroke:#7E71B1;stroke-width:0.744479}
    .fil0 {fill:none}
    .fil14 {fill:#2B2A29}
    .fil4 {fill:#009846}
    .fil8 {fill:#00A0E3}
    .fil9 {fill:#393185}
    .fil7 {fill:#E31E24}
    .fil15 {fill:#FEFEFE}
    .fil18 {fill:#FFED00}
    .fil16 {fill:#015AFF}
    .fil17 {fill:#0ABF00}
    .fil19 {fill:#E31E24;fill-rule:nonzero}
    .fil13 {fill:#567362;fill-rule:nonzero}
    .fil1 {fill:#2364AD;fill-rule:nonzero}
    .fil10 {fill:url(#id0)}
    .fil5 {fill:url(#id1)}
    .fil2 {fill:url(#id2)}
    .fil12 {fill:url(#id3)}
    .fil11 {fill:url(#id4)}
    .fil6 {fill:url(#id5)}
    .fil3 {fill:url(#id6)}
   ]]>
  </style>
  <radialGradient id="id0" gradientUnits="userSpaceOnUse" cx="30.882" cy="25.123" r="3.37017" fx="30.882" fy="25.123">
   <stop offset="0" style="stop-color:#FEFEFE"/>
   <stop offset="0.141176" style="stop-color:#7FCFF0"/>
   <stop offset="1" style="stop-color:#00A0E3"/>
  </radialGradient>
  <radialGradient id="id1" gradientUnits="userSpaceOnUse" xlink:href="#id0" cx="27.3348" cy="31.0162" r="3.37017" fx="27.3348" fy="31.0162">
  </radialGradient>
  <radialGradient id="id2" gradientUnits="userSpaceOnUse" xlink:href="#id0" cx="23.5265" cy="25.0249" r="3.37017" fx="23.5265" fy="25.0249">
  </radialGradient>
  <radialGradient id="id3" gradientUnits="userSpaceOnUse" cx="27.3793" cy="26.7784" r="3.37017" fx="27.3793" fy="26.7784">
   <stop offset="0" style="stop-color:#FEFEFE"/>
   <stop offset="0.141176" style="stop-color:#9B97C1"/>
   <stop offset="1" style="stop-color:#393185"/>
  </radialGradient>
  <radialGradient id="id4" gradientUnits="userSpaceOnUse" cx="30.6729" cy="28.5574" r="3.37017" fx="30.6729" fy="28.5574">
   <stop offset="0" style="stop-color:#FEFEFE"/>
   <stop offset="0.141176" style="stop-color:#F08E91"/>
   <stop offset="1" style="stop-color:#E31E24"/>
  </radialGradient>
  <radialGradient id="id5" gradientUnits="userSpaceOnUse" xlink:href="#id4" cx="23.7606" cy="28.629" r="3.37017" fx="23.7606" fy="28.629">
  </radialGradient>
  <radialGradient id="id6" gradientUnits="userSpaceOnUse" cx="27.1794" cy="22.7557" r="3.37017" fx="27.1794" fy="22.7557">
   <stop offset="0" style="stop-color:#FEFEFE"/>
   <stop offset="0.141176" style="stop-color:#F183BE"/>
   <stop offset="1" style="stop-color:#E5097F"/>
  </radialGradient>
 </defs>
 <g id="Слой_x0020_1">
  <metadata id="CorelCorpID_0Corel-Layer"/>
  <path class="fil0 str0" d="M7.29689 59.5747l135.986 0c2.40798,0 4.37787,-1.96989 4.37787,-4.37787l0 -48.7324c0,-2.40798 -1.96989,-4.37787 -4.37787,-4.37787l-135.986 0c-2.40798,0 -4.37787,1.96989 -4.37787,4.37787l0 48.7324c0,2.40798 1.96989,4.37787 4.37787,4.37787z"/>
  <line class="fil0 str1" x1="21.1879" y1="2.39822" x2="33.5901" y2= "2.39822" />
  <g id="_537298632">
   <g>
    <g>
     <path id="_537298344" class="fil1" d="M6.80901 13.4163l0.539003 0.527422 -0.441063 0 -0.539003 -0.527422 0.441063 0zm0.882125 0l0.539003 0.527422 -0.441063 0 -0.539003 -0.527422 0.441063 0zm0.882125 0l0.539003 0.527422 -0.441063 0 -0.539003 -0.527422 0.441063 0zm0.882125 0l0.539003 0.527422 -0.441063 0 -0.539003 -0.527422 0.441063 0zm0.882125 0l0.539003 0.527422 -0.441063 0 -0.539003 -0.527422 0.441063 0zm0.882125 0l0.539003 0.527422 -0.441063 0 -0.539003 -0.527422 0.441063 0zm0.882125 0l0.539003 0.527422 -0.441063 0 -0.539003 -0.527422 0.441063 0zm0.882125 0l0.539003 0.527422 -0.441063 0 -0.539003 -0.527422 0.441063 0zm0.882125 0l0.539003 0.527422 -0.441063 0 -0.539003 -0.527422 0.441063 0zm0.882125 0l0.539003 0.527422 -0.441063 0 -0.539003 -0.527422 0.441063 0zm0.882125 0l0.539003 0.527422 -0.441063 0 -0.539003 -0.527422 0.441063 0zm0.882125 0l0.539003 0.527422 -0.441063 0 -0.539003 -0.527422 0.441063 0zm0.882125 0l0.539003 0.527422 -0.441063 0 -0.539003 -0.527422 0.441063 0zm0.882125 0l0.539003 0.527422 -0.441063 0 -0.539003 -0.527422 0.441063 0zm0.882125 0l0.539003 0.527422 -0.441063 0 -0.539003 -0.527422 0.441063 0zm0.882125 0l0.539003 0.527422 -0.441063 0 -0.539003 -0.527422 0.441063 0zm0.882125 0l0.539003 0.527422 -0.441063 0 -0.539003 -0.527422 0.441063 0zm0.882125 0l0.539003 0.527422 -0.441063 0 -0.539003 -0.527422 0.441063 0zm0.882456 0l0.539003 0.527422 -0.441228 0 -0.539003 -0.527422 0.441228 0zm0.882456 0l0.539003 0.527422 -0.441228 0 -0.539003 -0.527422 0.441228 0zm0.882456 0l0.539003 0.527422 -0.441228 0 -0.539003 -0.527422 0.441228 0zm0.882456 0l0.539003 0.527422 -0.441228 0 -0.539003 -0.527422 0.441228 0zm0.882456 0l0.539003 0.527422 -0.441228 0 -0.539003 -0.527422 0.441228 0zm0.882456 0l0.539003 0.527422 -0.441228 0 -0.539003 -0.527422 0.441228 0zm0.882456 0l0.539003 0.527422 -0.441228 0 -0.539003 -0.527422 0.441228 0zm0.882456 0l0.539003 0.527422 -0.441228 0 -0.539003 -0.527422 0.441228 0zm0.882456 0l0.539003 0.527422 -0.441228 0 -0.539003 -0.527422 0.441228 0zm0.882456 0l0.539003 0.527422 -0.441228 0 -0.539003 -0.527422 0.441228 0zm0.882456 0l0.539003 0.527422 -0.441228 0 -0.539003 -0.527422 0.441228 0zm0.882456 0l0.539003 0.527422 -0.441228 0 -0.539003 -0.527422 0.441228 0zm0.882456 0l0.539003 0.527422 -0.441228 0 -0.539003 -0.527422 0.441228 0zm0.882456 0l0.539003 0.527422 -0.441228 0 -0.539003 -0.527422 0.441228 0zm0.882456 0l0.539003 0.527422 -0.441228 0 -0.539003 -0.527422 0.441228 0zm0.882456 0l0.539003 0.527422 -0.441228 0 -0.539003 -0.527422 0.441228 0zm0.882456 0l0.539003 0.527422 -0.441228 0 -0.539003 -0.527422 0.441228 0zm0.882456 0l0.539003 0.527422 -0.441228 0 -0.539003 -0.527422 0.441228 0zm0.882456 0l0.539003 0.527422 -0.441228 0 -0.539003 -0.527422 0.441228 0zm0.882456 0l0.539003 0.527422 -0.441228 0 -0.539003 -0.527422 0.441228 0zm1.11043 0.527422l-0.130201 0 -0.539003 -0.527422 0.130201 0 0.617752 0.467698 -0.0787493 0.0597238zm-0.539003 -0.527422l0.617752 0 0 0.467698 -0.617752 -0.467698zm0.617752 0.703119l-0.696502 -0.407975 0 -0.235421 0.696502 0.407975 0 0.235421zm0 0.667715l-0.696502 -0.407975 0 -0.333858 0.696502 0.407975 0 0.333858zm0 0.667715l-0.696502 -0.407975 0 -0.333858 0.696502 0.407975 0 0.333858zm0 0.667715l-0.696502 -0.407975 0 -0.333858 0.696502 0.407975 0 0.333858zm0 0.667715l-0.696502 -0.407975 0 -0.333858 0.696502 0.407975 0 0.333858zm0 0.667715l-0.696502 -0.407975 0 -0.333858 0.696502 0.407975 0 0.333858zm0 0.667715l-0.696502 -0.407975 0 -0.333858 0.696502 0.407975 0 0.333858zm0 0.667715l-0.696502 -0.407975 0 -0.333858 0.696502 0.407975 0 0.333858zm0 0.667715l-0.696502 -0.407975 0 -0.333858 0.696502 0.407975 0 0.333858zm0 0.667715l-0.696502 -0.407975 0 -0.333858 0.696502 0.407975 0 0.333858zm0 0.667715l-0.696502 -0.407975 0 -0.333858 0.696502 0.407975 0 0.333858zm0 0.667715l-0.696502 -0.407975 0 -0.333858 0.696502 0.407975 0 0.333858zm0 0.667715l-0.696502 -0.407975 0 -0.333858 0.696502 0.407975 0 0.333858zm0 0.667715l-0.696502 -0.407975 0 -0.333858 0.696502 0.407975 0 0.333858zm0 0.66788l-0.696502 -0.407975 0 -0.334023 0.696502 0.407975 0 0.334023zm0 0.668046l-0.696502 -0.407975 0 -0.334023 0.696502 0.407975 0 0.334023zm0 0.668046l-0.696502 -0.407975 0 -0.334023 0.696502 0.407975 0 0.334023zm0 0.668046l-0.696502 -0.407975 0 -0.334023 0.696502 0.407975 0 0.334023zm0 0.668046l-0.696502 -0.407975 0 -0.334023 0.696502 0.407975 0 0.334023zm0 0.668046l-0.696502 -0.407975 0 -0.334023 0.696502 0.407975 0 0.334023zm0 0.668046l-0.696502 -0.407975 0 -0.334023 0.696502 0.407975 0 0.334023zm0 0.668046l-0.696502 -0.407975 0 -0.334023 0.696502 0.407975 0 0.334023zm0 0.668046l-0.696502 -0.407975 0 -0.334023 0.696502 0.407975 0 0.334023zm0 0.668046l-0.696502 -0.407975 0 -0.334023 0.696502 0.407975 0 0.334023zm0 0.668046l-0.696502 -0.407975 0 -0.334023 0.696502 0.407975 0 0.334023zm0 0.668046l-0.696502 -0.407975 0 -0.334023 0.696502 0.407975 0 0.334023zm0 0.668046l-0.696502 -0.407975 0 -0.334023 0.696502 0.407975 0 0.334023zm0 0.668046l-0.696502 -0.407975 0 -0.334023 0.696502 0.407975 0 0.334023zm0 0.668046l-0.696502 -0.407975 0 -0.334023 0.696502 0.407975 0 0.334023zm0 0.668046l-0.696502 -0.407975 0 -0.334023 0.696502 0.407975 0 0.334023zm0 0.668046l-0.696502 -0.407975 0 -0.334023 0.696502 0.407975 0 0.334023zm0 0.668046l-0.696502 -0.407975 0 -0.334023 0.696502 0.407975 0 0.334023zm0 0.668046l-0.696502 -0.407975 0 -0.334023 0.696502 0.407975 0 0.334023zm0 0.668046l-0.696502 -0.407975 0 -0.334023 0.696502 0.407975 0 0.334023zm0 0.668046l-0.696502 -0.407975 0 -0.334023 0.696502 0.407975 0 0.334023zm0 0.668046l-0.696502 -0.407975 0 -0.334023 0.696502 0.407975 0 0.334023zm0 0.668046l-0.696502 -0.407975 0 -0.334023 0.696502 0.407975 0 0.334023zm0 0.668046l-0.696502 -0.407975 0 -0.334023 0.696502 0.407975 0 0.334023zm0 0.668046l-0.696502 -0.407975 0 -0.334023 0.696502 0.407975 0 0.334023zm0 0.668046l-0.696502 -0.407975 0 -0.334023 0.696502 0.407975 0 0.334023zm0 0.668046l-0.696502 -0.407975 0 -0.334023 0.696502 0.407975 0 0.334023zm0 0.668046l-0.696502 -0.407975 0 -0.334023 0.696502 0.407975 0 0.334023zm0 0.668046l-0.696502 -0.407975 0 -0.334023 0.696502 0.407975 0 0.334023zm0 0.668046l-0.696502 -0.407975 0 -0.334023 0.696502 0.407975 0 0.334023zm0 0.668046l-0.696502 -0.407975 0 -0.334023 0.696502 0.407975 0 0.334023zm0 0.668046l-0.696502 -0.407975 0 -0.334023 0.696502 0.407975 0 0.334023zm0 0.668046l-0.696502 -0.407975 0 -0.334023 0.696502 0.407975 0 0.334023zm0 0.668046l-0.696502 -0.407975 0 -0.334023 0.696502 0.407975 0 0.334023zm0 0.668046l-0.696502 -0.407975 0 -0.334023 0.696502 0.407975 0 0.334023zm0 0.668046l-0.696502 -0.407975 0 -0.334023 0.696502 0.407975 0 0.334023zm0 0.668046l-0.696502 -0.407975 0 -0.334023 0.696502 0.407975 0 0.334023zm-0.928614 0.0842089l-0.539003 -0.527422 0.441063 0 0.539003 0.527422 -0.441063 0zm-0.882125 0l-0.539003 -0.527422 0.441063 0 0.539003 0.527422 -0.441063 0zm-0.882125 0l-0.539003 -0.527422 0.441063 0 0.539003 0.527422 -0.441063 0zm-0.882125 0l-0.539003 -0.527422 0.441063 0 0.539003 0.527422 -0.441063 0zm-0.882125 0l-0.539003 -0.527422 0.441063 0 0.539003 0.527422 -0.441063 0zm-0.882125 0l-0.539003 -0.527422 0.441063 0 0.539003 0.527422 -0.441063 0zm-0.882125 0l-0.539003 -0.527422 0.441063 0 0.539003 0.527422 -0.441063 0zm-0.882125 0l-0.539003 -0.527422 0.441063 0 0.539003 0.527422 -0.441063 0zm-0.882125 0l-0.539003 -0.527422 0.441063 0 0.539003 0.527422 -0.441063 0zm-0.882125 0l-0.539003 -0.527422 0.441063 0 0.539003 0.527422 -0.441063 0zm-0.882125 0l-0.539003 -0.527422 0.441063 0 0.539003 0.527422 -0.441063 0zm-0.882125 0l-0.539003 -0.527422 0.441063 0 0.539003 0.527422 -0.441063 0zm-0.882125 0l-0.539003 -0.527422 0.441063 0 0.539003 0.527422 -0.441063 0zm-0.882125 0l-0.539003 -0.527422 0.441063 0 0.539003 0.527422 -0.441063 0zm-0.882125 0l-0.539003 -0.527422 0.441063 0 0.539003 0.527422 -0.441063 0zm-0.882125 0l-0.539003 -0.527422 0.441063 0 0.539003 0.527422 -0.441063 0zm-0.882125 0l-0.539003 -0.527422 0.441063 0 0.539003 0.527422 -0.441063 0zm-0.882125 0l-0.539003 -0.527422 0.441063 0 0.539003 0.527422 -0.441063 0zm-0.882456 0l-0.539003 -0.527422 0.441228 0 0.539003 0.527422 -0.441228 0zm-0.882456 0l-0.539003 -0.527422 0.441228 0 0.539003 0.527422 -0.441228 0zm-0.882456 0l-0.539003 -0.527422 0.441228 0 0.539003 0.527422 -0.441228 0zm-0.882456 0l-0.539003 -0.527422 0.441228 0 0.539003 0.527422 -0.441228 0zm-0.882456 0l-0.539003 -0.527422 0.441228 0 0.539003 0.527422 -0.441228 0zm-0.882456 0l-0.539003 -0.527422 0.441228 0 0.539003 0.527422 -0.441228 0zm-0.882456 0l-0.539003 -0.527422 0.441228 0 0.539003 0.527422 -0.441228 0zm-0.882456 0l-0.539003 -0.527422 0.441228 0 0.539003 0.527422 -0.441228 0zm-0.882456 0l-0.539003 -0.527422 0.441228 0 0.539003 0.527422 -0.441228 0zm-0.882456 0l-0.539003 -0.527422 0.441228 0 0.539003 0.527422 -0.441228 0zm-0.882456 0l-0.539003 -0.527422 0.441228 0 0.539003 0.527422 -0.441228 0zm-0.882456 0l-0.539003 -0.527422 0.441228 0 0.539003 0.527422 -0.441228 0zm-0.882456 0l-0.539003 -0.527422 0.441228 0 0.539003 0.527422 -0.441228 0zm-0.882456 0l-0.539003 -0.527422 0.441228 0 0.539003 0.527422 -0.441228 0zm-0.882456 0l-0.539003 -0.527422 0.441228 0 0.539003 0.527422 -0.441228 0zm-0.882456 0l-0.539003 -0.527422 0.441228 0 0.539003 0.527422 -0.441228 0zm-0.882456 0l-0.539003 -0.527422 0.441228 0 0.539003 0.527422 -0.441228 0zm-0.882456 0l-0.539003 -0.527422 0.441228 0 0.539003 0.527422 -0.441228 0zm-0.882456 0l-0.539003 -0.527422 0.441228 0 0.539003 0.527422 -0.441228 0zm-0.882456 0l-0.539003 -0.527422 0.441228 0 0.539003 0.527422 -0.441228 0zm-0.78038 -1.01249l0.696502 0.407975 0 0.333858 -0.696502 -0.407975 0 -0.333858zm0 -0.667715l0.696502 0.407975 0 0.333858 -0.696502 -0.407975 0 -0.333858zm0 -0.667715l0.696502 0.407975 0 0.333858 -0.696502 -0.407975 0 -0.333858zm0 -0.667715l0.696502 0.407975 0 0.333858 -0.696502 -0.407975 0 -0.333858zm0 -0.667715l0.696502 0.407975 0 0.333858 -0.696502 -0.407975 0 -0.333858zm0 -0.667715l0.696502 0.407975 0 0.333858 -0.696502 -0.407975 0 -0.333858zm0 -0.667715l0.696502 0.407975 0 0.333858 -0.696502 -0.407975 0 -0.333858zm0 -0.667715l0.696502 0.407975 0 0.333858 -0.696502 -0.407975 0 -0.333858zm0 -0.667715l0.696502 0.407975 0 0.333858 -0.696502 -0.407975 0 -0.333858zm0 -0.667715l0.696502 0.407975 0 0.333858 -0.696502 -0.407975 0 -0.333858zm0 -0.667715l0.696502 0.407975 0 0.333858 -0.696502 -0.407975 0 -0.333858zm0 -0.667715l0.696502 0.407975 0 0.333858 -0.696502 -0.407975 0 -0.333858zm0 -0.667715l0.696502 0.407975 0 0.333858 -0.696502 -0.407975 0 -0.333858zm0 -0.667715l0.696502 0.407975 0 0.333858 -0.696502 -0.407975 0 -0.333858zm0 -0.668046l0.696502 0.407975 0 0.334023 -0.696502 -0.407975 0 -0.334023zm0 -0.668046l0.696502 0.407975 0 0.334023 -0.696502 -0.407975 0 -0.334023zm0 -0.668046l0.696502 0.407975 0 0.334023 -0.696502 -0.407975 0 -0.334023zm0 -0.668046l0.696502 0.407975 0 0.334023 -0.696502 -0.407975 0 -0.334023zm0 -0.668046l0.696502 0.407975 0 0.334023 -0.696502 -0.407975 0 -0.334023zm0 -0.668046l0.696502 0.407975 0 0.334023 -0.696502 -0.407975 0 -0.334023zm0 -0.668046l0.696502 0.407975 0 0.334023 -0.696502 -0.407975 0 -0.334023zm0 -0.668046l0.696502 0.407975 0 0.334023 -0.696502 -0.407975 0 -0.334023zm0 -0.668046l0.696502 0.407975 0 0.334023 -0.696502 -0.407975 0 -0.334023zm0 -0.668046l0.696502 0.407975 0 0.334023 -0.696502 -0.407975 0 -0.334023zm0 -0.668046l0.696502 0.407975 0 0.334023 -0.696502 -0.407975 0 -0.334023zm0 -0.668046l0.696502 0.407975 0 0.334023 -0.696502 -0.407975 0 -0.334023zm0 -0.668046l0.696502 0.407975 0 0.334023 -0.696502 -0.407975 0 -0.334023zm0 -0.668046l0.696502 0.407975 0 0.334023 -0.696502 -0.407975 0 -0.334023zm0 -0.668046l0.696502 0.407975 0 0.334023 -0.696502 -0.407975 0 -0.334023zm0 -0.668046l0.696502 0.407975 0 0.334023 -0.696502 -0.407975 0 -0.334023zm0 -0.668046l0.696502 0.407975 0 0.334023 -0.696502 -0.407975 0 -0.334023zm0 -0.668046l0.696502 0.407975 0 0.334023 -0.696502 -0.407975 0 -0.334023zm0 -0.668046l0.696502 0.407975 0 0.334023 -0.696502 -0.407975 0 -0.334023zm0 -0.668046l0.696502 0.407975 0 0.334023 -0.696502 -0.407975 0 -0.334023zm0 -0.668046l0.696502 0.407975 0 0.334023 -0.696502 -0.407975 0 -0.334023zm0 -0.668046l0.696502 0.407975 0 0.334023 -0.696502 -0.407975 0 -0.334023zm0 -0.668046l0.696502 0.407975 0 0.334023 -0.696502 -0.407975 0 -0.334023zm0 -0.668046l0.696502 0.407975 0 0.334023 -0.696502 -0.407975 0 -0.334023zm0 -0.668046l0.696502 0.407975 0 0.334023 -0.696502 -0.407975 0 -0.334023zm0 -0.668046l0.696502 0.407975 0 0.334023 -0.696502 -0.407975 0 -0.334023zm0 -0.668046l0.696502 0.407975 0 0.334023 -0.696502 -0.407975 0 -0.334023zm0 -0.668046l0.696502 0.407975 0 0.334023 -0.696502 -0.407975 0 -0.334023zm0 -0.668046l0.696502 0.407975 0 0.334023 -0.696502 -0.407975 0 -0.334023zm0 -0.668046l0.696502 0.407975 0 0.334023 -0.696502 -0.407975 0 -0.334023zm0 -0.668046l0.696502 0.407975 0 0.334023 -0.696502 -0.407975 0 -0.334023zm0 -0.668046l0.696502 0.407975 0 0.334023 -0.696502 -0.407975 0 -0.334023zm0 -0.668046l0.696502 0.407975 0 0.334023 -0.696502 -0.407975 0 -0.334023zm0 -0.668046l0.696502 0.407975 0 0.334023 -0.696502 -0.407975 0 -0.334023zm0 -0.668046l0.696502 0.407975 0 0.334023 -0.696502 -0.407975 0 -0.334023zm0 -0.668046l0.696502 0.407975 0 0.334023 -0.696502 -0.407975 0 -0.334023zm0.696502 0.0249814l0 0.0489702 -0.696502 -0.407975 0 -0.0489702 0.0787493 -0.0597238 0.617752 0.467698zm-0.696502 -0.407975l0 -0.0597238 0.0787493 0 -0.0787493 0.0597238z"/>
    </g>
    <g>
     <path id="_537298056" class="fil1" d="M14.7111 5.28977l0.539003 0.527422 -0.441063 0 -0.539003 -0.527422 0.441063 0zm0.882125 0l0.539003 0.527422 -0.441063 0 -0.539003 -0.527422 0.441063 0zm0.882125 0l0.539003 0.527422 -0.441063 0 -0.539003 -0.527422 0.441063 0zm0.882125 0l0.539003 0.527422 -0.441063 0 -0.539003 -0.527422 0.441063 0zm0.882125 0l0.539003 0.527422 -0.441063 0 -0.539003 -0.527422 0.441063 0zm0.882125 0l0.539003 0.527422 -0.441063 0 -0.539003 -0.527422 0.441063 0zm0.882125 0l0.539003 0.527422 -0.441063 0 -0.539003 -0.527422 0.441063 0zm0.882125 0l0.539003 0.527422 -0.441063 0 -0.539003 -0.527422 0.441063 0zm0.882125 0l0.539003 0.527422 -0.441063 0 -0.539003 -0.527422 0.441063 0zm0.882125 0l0.539003 0.527422 -0.441063 0 -0.539003 -0.527422 0.441063 0zm0.882125 0l0.539003 0.527422 -0.441063 0 -0.539003 -0.527422 0.441063 0zm0.882125 0l0.539003 0.527422 -0.441063 0 -0.539003 -0.527422 0.441063 0zm0.882125 0l0.539003 0.527422 -0.441063 0 -0.539003 -0.527422 0.441063 0zm0.882125 0l0.539003 0.527422 -0.441063 0 -0.539003 -0.527422 0.441063 0zm0.882125 0l0.539003 0.527422 -0.441063 0 -0.539003 -0.527422 0.441063 0zm0.882125 0l0.539003 0.527422 -0.441063 0 -0.539003 -0.527422 0.441063 0zm0.882125 0l0.539003 0.527422 -0.441063 0 -0.539003 -0.527422 0.441063 0zm0.882125 0l0.539003 0.527422 -0.441063 0 -0.539003 -0.527422 0.441063 0zm0.882456 0l0.539003 0.527422 -0.441228 0 -0.539003 -0.527422 0.441228 0zm0.882456 0l0.539003 0.527422 -0.441228 0 -0.539003 -0.527422 0.441228 0zm0.882456 0l0.539003 0.527422 -0.441228 0 -0.539003 -0.527422 0.441228 0zm0.882456 0l0.539003 0.527422 -0.441228 0 -0.539003 -0.527422 0.441228 0zm0.882456 0l0.539003 0.527422 -0.441228 0 -0.539003 -0.527422 0.441228 0zm0.882456 0l0.539003 0.527422 -0.441228 0 -0.539003 -0.527422 0.441228 0zm0.882456 0l0.539003 0.527422 -0.441228 0 -0.539003 -0.527422 0.441228 0zm0.882456 0l0.539003 0.527422 -0.441228 0 -0.539003 -0.527422 0.441228 0zm0.882456 0l0.539003 0.527422 -0.441228 0 -0.539003 -0.527422 0.441228 0zm0.882456 0l0.539003 0.527422 -0.441228 0 -0.539003 -0.527422 0.441228 0zm0.882456 0l0.539003 0.527422 -0.441228 0 -0.539003 -0.527422 0.441228 0zm0.882456 0l0.539003 0.527422 -0.441228 0 -0.539003 -0.527422 0.441228 0zm0.882456 0l0.539003 0.527422 -0.441228 0 -0.539003 -0.527422 0.441228 0zm0.882456 0l0.539003 0.527422 -0.441228 0 -0.539003 -0.527422 0.441228 0zm0.882456 0l0.539003 0.527422 -0.441228 0 -0.539003 -0.527422 0.441228 0zm0.882456 0l0.539003 0.527422 -0.441228 0 -0.539003 -0.527422 0.441228 0zm0.882456 0l0.539003 0.527422 -0.441228 0 -0.539003 -0.527422 0.441228 0zm0.882456 0l0.539003 0.527422 -0.441228 0 -0.539003 -0.527422 0.441228 0zm0.882456 0l0.539003 0.527422 -0.441228 0 -0.539003 -0.527422 0.441228 0zm0.882456 0l0.539003 0.527422 -0.441228 0 -0.539003 -0.527422 0.441228 0zm1.11043 0.527422l-0.130201 0 -0.539003 -0.527422 0.130201 0 0.617752 0.467698 -0.0787493 0.0597238zm-0.539003 -0.527422l0.617752 0 0 0.467698 -0.617752 -0.467698zm0.617752 0.703119l-0.696502 -0.407975 0 -0.235421 0.696502 0.407975 0 0.235421zm0 0.667715l-0.696502 -0.407975 0 -0.333858 0.696502 0.407975 0 0.333858zm0 0.667715l-0.696502 -0.407975 0 -0.333858 0.696502 0.407975 0 0.333858zm0 0.667715l-0.696502 -0.407975 0 -0.333858 0.696502 0.407975 0 0.333858zm0 0.667715l-0.696502 -0.407975 0 -0.333858 0.696502 0.407975 0 0.333858zm0 0.667715l-0.696502 -0.407975 0 -0.333858 0.696502 0.407975 0 0.333858zm0 0.667715l-0.696502 -0.407975 0 -0.333858 0.696502 0.407975 0 0.333858zm0 0.667715l-0.696502 -0.407975 0 -0.333858 0.696502 0.407975 0 0.333858zm0 0.667715l-0.696502 -0.407975 0 -0.333858 0.696502 0.407975 0 0.333858zm0 0.667715l-0.696502 -0.407975 0 -0.333858 0.696502 0.407975 0 0.333858zm0 0.667715l-0.696502 -0.407975 0 -0.333858 0.696502 0.407975 0 0.333858zm0 0.667715l-0.696502 -0.407975 0 -0.333858 0.696502 0.407975 0 0.333858zm0 0.667715l-0.696502 -0.407975 0 -0.333858 0.696502 0.407975 0 0.333858zm0 0.667715l-0.696502 -0.407975 0 -0.333858 0.696502 0.407975 0 0.333858zm0 0.66788l-0.696502 -0.407975 0 -0.334023 0.696502 0.407975 0 0.334023zm0 0.668046l-0.696502 -0.407975 0 -0.334023 0.696502 0.407975 0 0.334023zm0 0.668046l-0.696502 -0.407975 0 -0.334023 0.696502 0.407975 0 0.334023zm0 0.668046l-0.696502 -0.407975 0 -0.334023 0.696502 0.407975 0 0.334023zm0 0.668046l-0.696502 -0.407975 0 -0.334023 0.696502 0.407975 0 0.334023zm0 0.668046l-0.696502 -0.407975 0 -0.334023 0.696502 0.407975 0 0.334023zm0 0.668046l-0.696502 -0.407975 0 -0.334023 0.696502 0.407975 0 0.334023zm0 0.668046l-0.696502 -0.407975 0 -0.334023 0.696502 0.407975 0 0.334023zm0 0.668046l-0.696502 -0.407975 0 -0.334023 0.696502 0.407975 0 0.334023zm0 0.668046l-0.696502 -0.407975 0 -0.334023 0.696502 0.407975 0 0.334023zm0 0.668046l-0.696502 -0.407975 0 -0.334023 0.696502 0.407975 0 0.334023zm0 0.668046l-0.696502 -0.407975 0 -0.334023 0.696502 0.407975 0 0.334023zm0 0.668046l-0.696502 -0.407975 0 -0.334023 0.696502 0.407975 0 0.334023zm0 0.668046l-0.696502 -0.407975 0 -0.334023 0.696502 0.407975 0 0.334023zm0 0.668046l-0.696502 -0.407975 0 -0.334023 0.696502 0.407975 0 0.334023zm0 0.668046l-0.696502 -0.407975 0 -0.334023 0.696502 0.407975 0 0.334023zm0 0.668046l-0.696502 -0.407975 0 -0.334023 0.696502 0.407975 0 0.334023zm0 0.668046l-0.696502 -0.407975 0 -0.334023 0.696502 0.407975 0 0.334023zm0 0.668046l-0.696502 -0.407975 0 -0.334023 0.696502 0.407975 0 0.334023zm0 0.668046l-0.696502 -0.407975 0 -0.334023 0.696502 0.407975 0 0.334023zm0 0.668046l-0.696502 -0.407975 0 -0.334023 0.696502 0.407975 0 0.334023zm0 0.668046l-0.696502 -0.407975 0 -0.334023 0.696502 0.407975 0 0.334023zm0 0.668046l-0.696502 -0.407975 0 -0.334023 0.696502 0.407975 0 0.334023zm0 0.668046l-0.696502 -0.407975 0 -0.334023 0.696502 0.407975 0 0.334023zm0 0.668046l-0.696502 -0.407975 0 -0.334023 0.696502 0.407975 0 0.334023zm0 0.668046l-0.696502 -0.407975 0 -0.334023 0.696502 0.407975 0 0.334023zm0 0.668046l-0.696502 -0.407975 0 -0.334023 0.696502 0.407975 0 0.334023zm0 0.668046l-0.696502 -0.407975 0 -0.334023 0.696502 0.407975 0 0.334023zm0 0.668046l-0.696502 -0.407975 0 -0.334023 0.696502 0.407975 0 0.334023zm0 0.668046l-0.696502 -0.407975 0 -0.334023 0.696502 0.407975 0 0.334023zm0 0.668046l-0.696502 -0.407975 0 -0.334023 0.696502 0.407975 0 0.334023zm0 0.668046l-0.696502 -0.407975 0 -0.334023 0.696502 0.407975 0 0.334023zm0 0.668046l-0.696502 -0.407975 0 -0.334023 0.696502 0.407975 0 0.334023zm0 0.668046l-0.696502 -0.407975 0 -0.334023 0.696502 0.407975 0 0.334023zm0 0.668046l-0.696502 -0.407975 0 -0.334023 0.696502 0.407975 0 0.334023zm0 0.668046l-0.696502 -0.407975 0 -0.334023 0.696502 0.407975 0 0.334023zm0 0.668046l-0.696502 -0.407975 0 -0.334023 0.696502 0.407975 0 0.334023zm-0.928614 0.0842089l-0.539003 -0.527422 0.441063 0 0.539003 0.527422 -0.441063 0zm-0.882125 0l-0.539003 -0.527422 0.441063 0 0.539003 0.527422 -0.441063 0zm-0.882125 0l-0.539003 -0.527422 0.441063 0 0.539003 0.527422 -0.441063 0zm-0.882125 0l-0.539003 -0.527422 0.441063 0 0.539003 0.527422 -0.441063 0zm-0.882125 0l-0.539003 -0.527422 0.441063 0 0.539003 0.527422 -0.441063 0zm-0.882125 0l-0.539003 -0.527422 0.441063 0 0.539003 0.527422 -0.441063 0zm-0.882125 0l-0.539003 -0.527422 0.441063 0 0.539003 0.527422 -0.441063 0zm-0.882125 0l-0.539003 -0.527422 0.441063 0 0.539003 0.527422 -0.441063 0zm-0.882125 0l-0.539003 -0.527422 0.441063 0 0.539003 0.527422 -0.441063 0zm-0.882125 0l-0.539003 -0.527422 0.441063 0 0.539003 0.527422 -0.441063 0zm-0.882125 0l-0.539003 -0.527422 0.441063 0 0.539003 0.527422 -0.441063 0zm-0.882125 0l-0.539003 -0.527422 0.441063 0 0.539003 0.527422 -0.441063 0zm-0.882125 0l-0.539003 -0.527422 0.441063 0 0.539003 0.527422 -0.441063 0zm-0.882125 0l-0.539003 -0.527422 0.441063 0 0.539003 0.527422 -0.441063 0zm-0.882125 0l-0.539003 -0.527422 0.441063 0 0.539003 0.527422 -0.441063 0zm-0.882125 0l-0.539003 -0.527422 0.441063 0 0.539003 0.527422 -0.441063 0zm-0.882125 0l-0.539003 -0.527422 0.441063 0 0.539003 0.527422 -0.441063 0zm-0.882125 0l-0.539003 -0.527422 0.441063 0 0.539003 0.527422 -0.441063 0zm-0.882456 0l-0.539003 -0.527422 0.441228 0 0.539003 0.527422 -0.441228 0zm-0.882456 0l-0.539003 -0.527422 0.441228 0 0.539003 0.527422 -0.441228 0zm-0.882456 0l-0.539003 -0.527422 0.441228 0 0.539003 0.527422 -0.441228 0zm-0.882456 0l-0.539003 -0.527422 0.441228 0 0.539003 0.527422 -0.441228 0zm-0.882456 0l-0.539003 -0.527422 0.441228 0 0.539003 0.527422 -0.441228 0zm-0.882456 0l-0.539003 -0.527422 0.441228 0 0.539003 0.527422 -0.441228 0zm-0.882456 0l-0.539003 -0.527422 0.441228 0 0.539003 0.527422 -0.441228 0zm-0.882456 0l-0.539003 -0.527422 0.441228 0 0.539003 0.527422 -0.441228 0zm-0.882456 0l-0.539003 -0.527422 0.441228 0 0.539003 0.527422 -0.441228 0zm-0.882456 0l-0.539003 -0.527422 0.441228 0 0.539003 0.527422 -0.441228 0zm-0.882456 0l-0.539003 -0.527422 0.441228 0 0.539003 0.527422 -0.441228 0zm-0.882456 0l-0.539003 -0.527422 0.441228 0 0.539003 0.527422 -0.441228 0zm-0.882456 0l-0.539003 -0.527422 0.441228 0 0.539003 0.527422 -0.441228 0zm-0.882456 0l-0.539003 -0.527422 0.441228 0 0.539003 0.527422 -0.441228 0zm-0.882456 0l-0.539003 -0.527422 0.441228 0 0.539003 0.527422 -0.441228 0zm-0.882456 0l-0.539003 -0.527422 0.441228 0 0.539003 0.527422 -0.441228 0zm-0.882456 0l-0.539003 -0.527422 0.441228 0 0.539003 0.527422 -0.441228 0zm-0.882456 0l-0.539003 -0.527422 0.441228 0 0.539003 0.527422 -0.441228 0zm-0.882456 0l-0.539003 -0.527422 0.441228 0 0.539003 0.527422 -0.441228 0zm-0.882456 0l-0.539003 -0.527422 0.441228 0 0.539003 0.527422 -0.441228 0zm-0.78038 -1.01249l0.696502 0.407975 0 0.333858 -0.696502 -0.407975 0 -0.333858zm0 -0.667715l0.696502 0.407975 0 0.333858 -0.696502 -0.407975 0 -0.333858zm0 -0.667715l0.696502 0.407975 0 0.333858 -0.696502 -0.407975 0 -0.333858zm0 -0.667715l0.696502 0.407975 0 0.333858 -0.696502 -0.407975 0 -0.333858zm0 -0.667715l0.696502 0.407975 0 0.333858 -0.696502 -0.407975 0 -0.333858zm0 -0.667715l0.696502 0.407975 0 0.333858 -0.696502 -0.407975 0 -0.333858zm0 -0.667715l0.696502 0.407975 0 0.333858 -0.696502 -0.407975 0 -0.333858zm0 -0.667715l0.696502 0.407975 0 0.333858 -0.696502 -0.407975 0 -0.333858zm0 -0.667715l0.696502 0.407975 0 0.333858 -0.696502 -0.407975 0 -0.333858zm0 -0.667715l0.696502 0.407975 0 0.333858 -0.696502 -0.407975 0 -0.333858zm0 -0.667715l0.696502 0.407975 0 0.333858 -0.696502 -0.407975 0 -0.333858zm0 -0.667715l0.696502 0.407975 0 0.333858 -0.696502 -0.407975 0 -0.333858zm0 -0.667715l0.696502 0.407975 0 0.333858 -0.696502 -0.407975 0 -0.333858zm0 -0.667715l0.696502 0.407975 0 0.333858 -0.696502 -0.407975 0 -0.333858zm0 -0.668046l0.696502 0.407975 0 0.334023 -0.696502 -0.407975 0 -0.334023zm0 -0.668046l0.696502 0.407975 0 0.334023 -0.696502 -0.407975 0 -0.334023zm0 -0.668046l0.696502 0.407975 0 0.334023 -0.696502 -0.407975 0 -0.334023zm0 -0.668046l0.696502 0.407975 0 0.334023 -0.696502 -0.407975 0 -0.334023zm0 -0.668046l0.696502 0.407975 0 0.334023 -0.696502 -0.407975 0 -0.334023zm0 -0.668046l0.696502 0.407975 0 0.334023 -0.696502 -0.407975 0 -0.334023zm0 -0.668046l0.696502 0.407975 0 0.334023 -0.696502 -0.407975 0 -0.334023zm0 -0.668046l0.696502 0.407975 0 0.334023 -0.696502 -0.407975 0 -0.334023zm0 -0.668046l0.696502 0.407975 0 0.334023 -0.696502 -0.407975 0 -0.334023zm0 -0.668046l0.696502 0.407975 0 0.334023 -0.696502 -0.407975 0 -0.334023zm0 -0.668046l0.696502 0.407975 0 0.334023 -0.696502 -0.407975 0 -0.334023zm0 -0.668046l0.696502 0.407975 0 0.334023 -0.696502 -0.407975 0 -0.334023zm0 -0.668046l0.696502 0.407975 0 0.334023 -0.696502 -0.407975 0 -0.334023zm0 -0.668046l0.696502 0.407975 0 0.334023 -0.696502 -0.407975 0 -0.334023zm0 -0.668046l0.696502 0.407975 0 0.334023 -0.696502 -0.407975 0 -0.334023zm0 -0.668046l0.696502 0.407975 0 0.334023 -0.696502 -0.407975 0 -0.334023zm0 -0.668046l0.696502 0.407975 0 0.334023 -0.696502 -0.407975 0 -0.334023zm0 -0.668046l0.696502 0.407975 0 0.334023 -0.696502 -0.407975 0 -0.334023zm0 -0.668046l0.696502 0.407975 0 0.334023 -0.696502 -0.407975 0 -0.334023zm0 -0.668046l0.696502 0.407975 0 0.334023 -0.696502 -0.407975 0 -0.334023zm0 -0.668046l0.696502 0.407975 0 0.334023 -0.696502 -0.407975 0 -0.334023zm0 -0.668046l0.696502 0.407975 0 0.334023 -0.696502 -0.407975 0 -0.334023zm0 -0.668046l0.696502 0.407975 0 0.334023 -0.696502 -0.407975 0 -0.334023zm0 -0.668046l0.696502 0.407975 0 0.334023 -0.696502 -0.407975 0 -0.334023zm0 -0.668046l0.696502 0.407975 0 0.334023 -0.696502 -0.407975 0 -0.334023zm0 -0.668046l0.696502 0.407975 0 0.334023 -0.696502 -0.407975 0 -0.334023zm0 -0.668046l0.696502 0.407975 0 0.334023 -0.696502 -0.407975 0 -0.334023zm0 -0.668046l0.696502 0.407975 0 0.334023 -0.696502 -0.407975 0 -0.334023zm0 -0.668046l0.696502 0.407975 0 0.334023 -0.696502 -0.407975 0 -0.334023zm0 -0.668046l0.696502 0.407975 0 0.334023 -0.696502 -0.407975 0 -0.334023zm0 -0.668046l0.696502 0.407975 0 0.334023 -0.696502 -0.407975 0 -0.334023zm0 -0.668046l0.696502 0.407975 0 0.334023 -0.696502 -0.407975 0 -0.334023zm0 -0.668046l0.696502 0.407975 0 0.334023 -0.696502 -0.407975 0 -0.334023zm0 -0.668046l0.696502 0.407975 0 0.334023 -0.696502 -0.407975 0 -0.334023zm0 -0.668046l0.696502 0.407975 0 0.334023 -0.696502 -0.407975 0 -0.334023zm0 -0.668046l0.696502 0.407975 0 0.334023 -0.696502 -0.407975 0 -0.334023zm0.696502 0.0249814l0 0.0489702 -0.696502 -0.407975 0 -0.0489702 0.0787493 -0.0597238 0.617752 0.467698zm-0.696502 -0.407975l0 -0.0597238 0.0787493 0 -0.0787493 0.0597238z"/>
    </g>
    <g>
     <path class="fil1" d="M6.50178 13.233l0.667715 0.486393 -0.198197 0.203822 -0.667715 -0.486393 0.198197 -0.203822zm0.396394 -0.407644l0.667715 0.486393 -0.198197 0.203822 -0.667715 -0.486393 0.198197 -0.203822zm0.396394 -0.407644l0.667715 0.486393 -0.198197 0.203822 -0.667715 -0.486393 0.198197 -0.203822zm0.396394 -0.407644l0.667715 0.486393 -0.198197 0.203822 -0.667715 -0.486393 0.198197 -0.203822zm0.396394 -0.407975l0.667715 0.486393 -0.198197 0.203987 -0.667715 -0.486393 0.198197 -0.203987zm0.396559 -0.407975l0.667715 0.486393 -0.198362 0.203987 -0.667715 -0.486393 0.198362 -0.203987zm0.396725 -0.407975l0.667715 0.486393 -0.198362 0.203987 -0.667715 -0.486393 0.198362 -0.203987zm0.396725 -0.407975l0.667715 0.486393 -0.198362 0.203987 -0.667715 -0.486393 0.198362 -0.203987zm0.396725 -0.407975l0.667715 0.486393 -0.198362 0.203987 -0.667715 -0.486393 0.198362 -0.203987zm0.396725 -0.407975l0.667715 0.486393 -0.198362 0.203987 -0.667715 -0.486393 0.198362 -0.203987zm0.396725 -0.407975l0.667715 0.486393 -0.198362 0.203987 -0.667715 -0.486393 0.198362 -0.203987zm0.396725 -0.407975l0.667715 0.486393 -0.198362 0.203987 -0.667715 -0.486393 0.198362 -0.203987zm0.396725 -0.407975l0.667715 0.486393 -0.198362 0.203987 -0.667715 -0.486393 0.198362 -0.203987zm0.396725 -0.407975l0.667715 0.486393 -0.198362 0.203987 -0.667715 -0.486393 0.198362 -0.203987zm0.396725 -0.407975l0.667715 0.486393 -0.198362 0.203987 -0.667715 -0.486393 0.198362 -0.203987zm0.396725 -0.407975l0.667715 0.486393 -0.198362 0.203987 -0.667715 -0.486393 0.198362 -0.203987zm0.396725 -0.407975l0.667715 0.486393 -0.198362 0.203987 -0.667715 -0.486393 0.198362 -0.203987zm0.396725 -0.407975l0.667715 0.486393 -0.198362 0.203987 -0.667715 -0.486393 0.198362 -0.203987zm0.396725 -0.407975l0.667715 0.486393 -0.198362 0.203987 -0.667715 -0.486393 0.198362 -0.203987zm0.396725 -0.407975l0.667715 0.486393 -0.198362 0.203987 -0.667715 -0.486393 0.198362 -0.203987z"/>
    </g>
    <g>
     <path class="fil1" d="M40.1595 13.233l0.667715 0.486393 -0.198197 0.203822 -0.667715 -0.486393 0.198197 -0.203822zm0.396394 -0.407644l0.667715 0.486393 -0.198197 0.203822 -0.667715 -0.486393 0.198197 -0.203822zm0.396394 -0.407644l0.667715 0.486393 -0.198197 0.203822 -0.667715 -0.486393 0.198197 -0.203822zm0.396394 -0.407644l0.667715 0.486393 -0.198197 0.203822 -0.667715 -0.486393 0.198197 -0.203822zm0.396394 -0.407975l0.667715 0.486393 -0.198197 0.203987 -0.667715 -0.486393 0.198197 -0.203987zm0.396559 -0.407975l0.667715 0.486393 -0.198362 0.203987 -0.667715 -0.486393 0.198362 -0.203987zm0.396725 -0.407975l0.667715 0.486393 -0.198362 0.203987 -0.667715 -0.486393 0.198362 -0.203987zm0.396725 -0.407975l0.667715 0.486393 -0.198362 0.203987 -0.667715 -0.486393 0.198362 -0.203987zm0.396725 -0.407975l0.667715 0.486393 -0.198362 0.203987 -0.667715 -0.486393 0.198362 -0.203987zm0.396725 -0.407975l0.667715 0.486393 -0.198362 0.203987 -0.667715 -0.486393 0.198362 -0.203987zm0.396725 -0.407975l0.667715 0.486393 -0.198362 0.203987 -0.667715 -0.486393 0.198362 -0.203987zm0.396725 -0.407975l0.667715 0.486393 -0.198362 0.203987 -0.667715 -0.486393 0.198362 -0.203987zm0.396725 -0.407975l0.667715 0.486393 -0.198362 0.203987 -0.667715 -0.486393 0.198362 -0.203987zm0.396725 -0.407975l0.667715 0.486393 -0.198362 0.203987 -0.667715 -0.486393 0.198362 -0.203987zm0.396725 -0.407975l0.667715 0.486393 -0.198362 0.203987 -0.667715 -0.486393 0.198362 -0.203987zm0.396725 -0.407975l0.667715 0.486393 -0.198362 0.203987 -0.667715 -0.486393 0.198362 -0.203987zm0.396725 -0.407975l0.667715 0.486393 -0.198362 0.203987 -0.667715 -0.486393 0.198362 -0.203987zm0.396725 -0.407975l0.667715 0.486393 -0.198362 0.203987 -0.667715 -0.486393 0.198362 -0.203987zm0.396725 -0.407975l0.667715 0.486393 -0.198362 0.203987 -0.667715 -0.486393 0.198362 -0.203987zm0.396725 -0.407975l0.667715 0.486393 -0.198362 0.203987 -0.667715 -0.486393 0.198362 -0.203987z"/>
    </g>
    <g>
     <path class="fil1" d="M40.1595 46.8908l0.667715 0.486393 -0.198197 0.203822 -0.667715 -0.486393 0.198197 -0.203822zm0.396394 -0.407644l0.667715 0.486393 -0.198197 0.203822 -0.667715 -0.486393 0.198197 -0.203822zm0.396394 -0.407644l0.667715 0.486393 -0.198197 0.203822 -0.667715 -0.486393 0.198197 -0.203822zm0.396394 -0.407644l0.667715 0.486393 -0.198197 0.203822 -0.667715 -0.486393 0.198197 -0.203822zm0.396394 -0.407975l0.667715 0.486393 -0.198197 0.203987 -0.667715 -0.486393 0.198197 -0.203987zm0.396559 -0.407975l0.667715 0.486393 -0.198362 0.203987 -0.667715 -0.486393 0.198362 -0.203987zm0.396725 -0.407975l0.667715 0.486393 -0.198362 0.203987 -0.667715 -0.486393 0.198362 -0.203987zm0.396725 -0.407975l0.667715 0.486393 -0.198362 0.203987 -0.667715 -0.486393 0.198362 -0.203987zm0.396725 -0.407975l0.667715 0.486393 -0.198362 0.203987 -0.667715 -0.486393 0.198362 -0.203987zm0.396725 -0.407975l0.667715 0.486393 -0.198362 0.203987 -0.667715 -0.486393 0.198362 -0.203987zm0.396725 -0.407975l0.667715 0.486393 -0.198362 0.203987 -0.667715 -0.486393 0.198362 -0.203987zm0.396725 -0.407975l0.667715 0.486393 -0.198362 0.203987 -0.667715 -0.486393 0.198362 -0.203987zm0.396725 -0.407975l0.667715 0.486393 -0.198362 0.203987 -0.667715 -0.486393 0.198362 -0.203987zm0.396725 -0.407975l0.667715 0.486393 -0.198362 0.203987 -0.667715 -0.486393 0.198362 -0.203987zm0.396725 -0.407975l0.667715 0.486393 -0.198362 0.203987 -0.667715 -0.486393 0.198362 -0.203987zm0.396725 -0.407975l0.667715 0.486393 -0.198362 0.203987 -0.667715 -0.486393 0.198362 -0.203987zm0.396725 -0.407975l0.667715 0.486393 -0.198362 0.203987 -0.667715 -0.486393 0.198362 -0.203987zm0.396725 -0.407975l0.667715 0.486393 -0.198362 0.203987 -0.667715 -0.486393 0.198362 -0.203987zm0.396725 -0.407975l0.667715 0.486393 -0.198362 0.203987 -0.667715 -0.486393 0.198362 -0.203987zm0.396725 -0.407975l0.667715 0.486393 -0.198362 0.203987 -0.667715 -0.486393 0.198362 -0.203987z"/>
    </g>
    <g>
     <path class="fil1" d="M6.50178 46.8908l0.667715 0.486393 -0.198197 0.203822 -0.667715 -0.486393 0.198197 -0.203822zm0.396394 -0.407644l0.667715 0.486393 -0.198197 0.203822 -0.667715 -0.486393 0.198197 -0.203822zm0.396394 -0.407644l0.667715 0.486393 -0.198197 0.203822 -0.667715 -0.486393 0.198197 -0.203822zm0.396394 -0.407644l0.667715 0.486393 -0.198197 0.203822 -0.667715 -0.486393 0.198197 -0.203822zm0.396394 -0.407975l0.667715 0.486393 -0.198197 0.203987 -0.667715 -0.486393 0.198197 -0.203987zm0.396559 -0.407975l0.667715 0.486393 -0.198362 0.203987 -0.667715 -0.486393 0.198362 -0.203987zm0.396725 -0.407975l0.667715 0.486393 -0.198362 0.203987 -0.667715 -0.486393 0.198362 -0.203987zm0.396725 -0.407975l0.667715 0.486393 -0.198362 0.203987 -0.667715 -0.486393 0.198362 -0.203987zm0.396725 -0.407975l0.667715 0.486393 -0.198362 0.203987 -0.667715 -0.486393 0.198362 -0.203987zm0.396725 -0.407975l0.667715 0.486393 -0.198362 0.203987 -0.667715 -0.486393 0.198362 -0.203987zm0.396725 -0.407975l0.667715 0.486393 -0.198362 0.203987 -0.667715 -0.486393 0.198362 -0.203987zm0.396725 -0.407975l0.667715 0.486393 -0.198362 0.203987 -0.667715 -0.486393 0.198362 -0.203987zm0.396725 -0.407975l0.667715 0.486393 -0.198362 0.203987 -0.667715 -0.486393 0.198362 -0.203987zm0.396725 -0.407975l0.667715 0.486393 -0.198362 0.203987 -0.667715 -0.486393 0.198362 -0.203987zm0.396725 -0.407975l0.667715 0.486393 -0.198362 0.203987 -0.667715 -0.486393 0.198362 -0.203987zm0.396725 -0.407975l0.667715 0.486393 -0.198362 0.203987 -0.667715 -0.486393 0.198362 -0.203987zm0.396725 -0.407975l0.667715 0.486393 -0.198362 0.203987 -0.667715 -0.486393 0.198362 -0.203987zm0.396725 -0.407975l0.667715 0.486393 -0.198362 0.203987 -0.667715 -0.486393 0.198362 -0.203987zm0.396725 -0.407975l0.667715 0.486393 -0.198362 0.203987 -0.667715 -0.486393 0.198362 -0.203987zm0.396725 -0.407975l0.667715 0.486393 -0.198362 0.203987 -0.667715 -0.486393 0.198362 -0.203987z"/>
    </g>
   </g>
   <path class="fil2" d="M22.7177 22.8681c1.8612,0 3.37017,1.50881 3.37017,3.37001 0,1.8612 -1.50898,3.37001 -3.37017,3.37001 -1.8612,0 -3.37001,-1.50881 -3.37001,-3.37001 0,-1.8612 1.50881,-3.37001 3.37001,-3.37001z"/>
   <path class="fil3" d="M26.3706 20.5989c1.8612,0 3.37017,1.50881 3.37017,3.37001 0,1.86136 -1.50898,3.37017 -3.37017,3.37017 -1.8612,0 -3.37001,-1.50881 -3.37001,-3.37017 0,-1.8612 1.50881,-3.37001 3.37001,-3.37001z"/>
   <path class="fil4" d="M24.1749 23.8235c7.93069,-4.44719 15.3794,-6.23394 16.6371,-3.9909 1.25784,2.24303 -4.15171,7.66648 -12.0824,12.1137 -7.93069,4.44719 -15.3794,6.23394 -16.6371,3.9909 -1.25784,-2.24303 4.15171,-7.66648 12.0824,-12.1137zm0.242535 0.432625c7.39599,-4.14741 14.3426,-5.81372 15.5156,-3.7219 1.17297,2.09182 -3.87179,7.14965 -11.2679,11.2971 -7.39599,4.14724 -14.3425,5.81372 -15.5156,3.7219 -1.17297,-2.09182 3.87195,-7.14965 11.2679,-11.2971z"/>
   <path class="fil5" d="M26.526 28.8593c1.8612,0 3.37001,1.50881 3.37001,3.37001 0,1.8612 -1.50881,3.37001 -3.37001,3.37001 -1.86136,0 -3.37017,-1.50881 -3.37017,-3.37001 0,-1.8612 1.50881,-3.37001 3.37017,-3.37001z"/>
   <path class="fil6" d="M22.9518 26.4722c1.86136,0 3.37017,1.50898 3.37017,3.37017 0,1.8612 -1.50881,3.37001 -3.37017,3.37001 -1.8612,0 -3.37001,-1.50881 -3.37001,-3.37001 0,-1.8612 1.50881,-3.37017 3.37001,-3.37017z"/>
   <path class="fil7" d="M21.7964 27.8265c0.113988,-9.09174 2.29084,-16.4359 4.86228,-16.4037 2.57143,0.0322608 4.56349,7.42874 4.4495,16.5205 -0.113988,9.09174 -2.29084,16.4359 -4.86228,16.4037 -2.57143,-0.0320953 -4.56366,-7.42874 -4.4495,-16.5205zm0.495823 0.00612127c0.106378,-8.47862 2.13649,-15.3278 4.53454,-15.2977 2.39822,0.03011 4.25594,6.92796 4.14956,15.4067 -0.106212,8.47879 -2.13632,15.3278 -4.53454,15.2979 -2.39805,-0.03011 -4.25577,-6.92796 -4.14956,-15.4069z"/>
   <path class="fil8 str2" d="M23.6018 36.9056c1.32964,0 2.40765,1.07784 2.40765,2.40748 0,1.32981 -1.07801,2.40765 -2.40765,2.40765 -1.32964,0 -2.40748,-1.07784 -2.40748,-2.40765 0,-1.32964 1.07784,-2.40748 2.40748,-2.40748z"/>
   <path class="fil8 str2" d="M35.1541 17.0398c1.32964,0 2.40765,1.07784 2.40765,2.40748 0,1.32981 -1.07801,2.40765 -2.40765,2.40765 -1.32964,0 -2.40748,-1.07784 -2.40748,-2.40765 0,-1.32964 1.07784,-2.40748 2.40748,-2.40748z"/>
   <path class="fil9" d="M24.0075 32.3827c-8.78303,-4.77377 -14.8087,-10.6575 -13.4585,-13.1415 1.35015,-2.48408 9.5649,-0.628009 18.3481,4.14576 8.78303,4.77377 14.8087,10.6575 13.4585,13.1415 -1.35015,2.48408 -9.5649,0.628009 -18.3481,-4.14576zm0.260402 -0.479114c-8.19092,-4.45182 -13.8104,-9.9388 -12.5513,-12.2554 1.25916,-2.31682 8.92002,-0.585657 17.1111,3.86616 8.19092,4.45199 13.8104,9.93896 12.5513,12.2556 -1.25916,2.31665 -8.92002,0.585657 -17.1111,-3.86633z"/>
   <path class="fil8 str2" d="M13.1073 22.1759c1.32964,0 2.40765,1.07784 2.40765,2.40748 0,1.32981 -1.07801,2.40765 -2.40765,2.40765 -1.32964,0 -2.40748,-1.07784 -2.40748,-2.40765 0,-1.32964 1.07784,-2.40748 2.40748,-2.40748z"/>
   <path class="fil10" d="M30.0732 22.9662c1.8612,0 3.37001,1.50898 3.37001,3.37017 0,1.8612 -1.50881,3.37001 -3.37001,3.37001 -1.86136,0 -3.37017,-1.50881 -3.37017,-3.37001 0,-1.8612 1.50881,-3.37017 3.37017,-3.37017z"/>
   <path class="fil11" d="M29.864 26.4006c1.8612,0 3.37001,1.50881 3.37001,3.37017 0,1.8612 -1.50881,3.37001 -3.37001,3.37001 -1.8612,0 -3.37017,-1.50881 -3.37017,-3.37001 0,-1.86136 1.50898,-3.37017 3.37017,-3.37017z"/>
   <path class="fil12" d="M26.5705 24.6216c1.8612,0 3.37017,1.50881 3.37017,3.37001 0,1.8612 -1.50898,3.37017 -3.37017,3.37017 -1.8612,0 -3.37001,-1.50898 -3.37001,-3.37017 0,-1.8612 1.50881,-3.37001 3.37001,-3.37001z"/>
  </g>
  <line class="fil0 str1" x1="31.6935" y1="45.6683" x2="44.0957" y2= "45.6683" />
  <path class="fil13" d="M50.2777 28.6729l0 -15.0534 5.2719 0c1.82794,0 3.21119,0.349243 4.15684,1.04806 0.94218,0.702127 1.41501,1.72537 1.41501,3.07701 0,0.737365 -0.190587,1.38672 -0.56812,1.94772 -0.377534,0.561172 -0.906941,0.973944 -1.58094,1.23501 0.769295,0.194226 1.37977,0.582348 1.82447,1.16801 0.444537,0.585822 0.666888,1.30565 0.666888,2.15254 0,1.44677 -0.462239,2.5443 -1.38672,3.28878 -0.924643,0.744479 -2.24088,1.12218 -3.94872,1.13624l-5.85061 0zm3.10183 -6.55638l0 4.06519 2.65713 0c0.730417,0 1.29854,-0.17305 1.71131,-0.522293 0.409298,-0.349409 0.614113,-0.829184 0.614113,-1.4433 0,-1.3796 -0.71288,-2.07842 -2.14195,-2.0996l-2.8406 0zm0 -2.19125l2.29366 0c1.56324,-0.0282902 2.3466,-0.652825 2.3466,-1.87013 0,-0.681116 -0.197701,-1.17512 -0.592936,-1.47506 -0.39871,-0.299942 -1.02325,-0.448176 -1.87725,-0.448176l-2.17007 0 0 3.79337zm19.4642 2.22301l-5.95285 0 0 4.03342 6.98685 0 0 2.49119 -10.0887 0 0 -15.0534 10.0675 0 0 2.51237 -6.96568 0 0 3.58872 5.95285 0 0 2.42766zm14.6724 1.5103c-0.119944,1.61966 -0.716354,2.89702 -1.79618,3.82513 -1.07619,0.931592 -2.49831,1.3973 -4.26256,1.3973 -1.93019,0 -3.4476,-0.649186 -4.55555,-1.94772 -1.10448,-1.29854 -1.65853,-3.08413 -1.65853,-5.3495l0 -0.921003c0,-1.44677 0.254116,-2.72413 0.765655,-3.82513 0.508231,-1.10448 1.23865,-1.95136 2.1843,-2.54066 0.949294,-0.589297 2.05013,-0.882125 3.30284,-0.882125 1.73976,0 3.13707,0.465713 4.19919,1.3973 1.06212,0.928117 1.6726,2.2336 1.83837,3.91679l-3.10167 0c-0.074117,-0.970304 -0.345769,-1.67607 -0.811648,-2.11366 -0.462239,-0.437588 -1.17148,-0.6563 -2.12425,-0.6563 -1.03383,0 -1.8066,0.370585 -2.31831,1.11159 -0.51518,0.741005 -0.779883,1.88783 -0.790471,3.44743l0 1.13624c0,1.62677 0.243527,2.81595 0.737531,3.56754 0.494003,0.751593 1.27041,1.12565 2.33254,1.12565 0.956242,0 1.6726,-0.218711 2.14542,-0.6563 0.469353,-0.437588 0.741005,-1.11506 0.811482,-2.03259l3.10183 0zm13.3665 -7.52668l-4.61197 0 0 12.541 -3.10167 0 0 -12.541 -4.54844 0 0 -2.51237 12.2621 0 0 2.51237zm14.0195 12.541l-3.10167 0 0 -6.4505 -6.04815 0 0 6.4505 -3.10183 0 0 -15.0534 3.10183 0 0 6.10109 6.04815 0 0 -6.10109 3.10167 0 0 15.0534zm11.7294 -15.0534l3.11225 0 0 15.0534 -3.11225 0 0 -9.99687 -6.02697 9.99687 -3.09819 0 0 -15.0534 3.09819 0 0 10.0179 6.02697 -10.0179zm10.7096 8.89934l-1.78543 0 0 6.15403 -3.10183 0 0 -15.0534 3.10183 0 0 6.02697 1.41501 0 3.68037 -6.02697 3.78278 0 -4.64026 7.12086 5.12714 7.93251 -3.70155 0 -3.87807 -6.15403zm-74.8117 25.0659l-3.10167 0 0 -6.4505 -6.04815 0 0 6.4505 -3.10183 0 0 -15.0534 3.10183 0 0 6.10109 6.04815 0 0 -6.10109 3.10167 0 0 15.0534zm11.2036 -3.10167l-5.43768 0 -1.034 3.10167 -3.29573 0 5.59997 -15.0534 2.87601 0 5.63521 15.0534 -3.29937 0 -1.04442 -3.10167zm-4.60138 -2.51253l3.76508 0 -1.89131 -5.63521 -1.87377 5.63521zm15.9921 -2.32542l2.74183 -7.11375 3.34867 0 -5.26132 12.4174 -0.42336 0.818596c-0.779883,1.35859 -1.97254,2.03607 -3.57813,2.03607l-1.08694 -0.0423526 -0.0281248 -2.49119c0.162296,0.0282902 0.433949,0.0423526 0.804534,0.0423526 0.433949,0 0.783357,-0.074117 1.04806,-0.225825 0.268178,-0.151708 0.490364,-0.434114 0.666888,-0.839772l0.384648 -0.981058 -5.28249 -10.7342 3.33808 0 3.32766 7.11375zm12.6327 1.78559l-1.78543 0 0 6.15403 -3.10183 0 0 -15.0534 3.10183 0 0 6.02697 1.41501 0 3.68037 -6.02697 3.78278 0 -4.64026 7.12086 5.12714 7.93251 -3.70155 0 -3.87807 -6.15403zm17.7917 -8.89934l3.11225 0 0 15.0534 -3.11225 0 0 -9.99687 -6.02697 9.99687 -3.09819 0 0 -15.0534 3.09819 0 0 10.0179 6.02697 -10.0179z"/>
  <path class="fil13" d="M52.4821 5.70354l0.93275 0 0 5.10233 -0.93275 0 0 -5.10233zm-2.00166 0l0.934569 0 0 5.10233 -0.934569 0 0 -5.10233zm0.555381 2.1527l2.03011 0 0 0.88593 -2.03011 0 0 -0.88593zm5.57532 -0.781869c0,-0.206303 -0.0554223,-0.365787 -0.164447,-0.478121 -0.110679,-0.114153 -0.26338,-0.169576 -0.459757,-0.169576 -0.174374,0 -0.308711,0.0554223 -0.405989,0.169576 -0.0956242,0.112334 -0.144264,0.271818 -0.144264,0.478121l-0.909423 0c0,-0.46472 0.129208,-0.82389 0.387625,-1.07883 0.260071,-0.253454 0.624204,-0.380842 1.09736,-0.380842 0.316983,0 0.5888,0.0569113 0.815287,0.172719 0.226653,0.114153 0.397717,0.280255 0.516834,0.498305 0.117462,0.218215 0.176193,0.481595 0.176193,0.788652l0 3.73149 -0.909423 0 0 -3.73149zm-0.929441 3.80528c-0.419555,0 -0.733229,-0.119117 -0.943007,-0.355696 -0.209778,-0.238233 -0.315494,-0.595583 -0.315494,-1.07552 0,-0.572091 0.130863,-1.00157 0.394408,-1.28514 0.261726,-0.283564 0.655969,-0.424519 1.18455,-0.424519l0.65266 0 0.068823 0.835636 -0.71652 0c-0.229796,0 -0.40268,0.0721318 -0.516834,0.21805 -0.113988,0.145918 -0.171065,0.365787 -0.171065,0.655969 0,0.20134 0.0486393,0.349078 0.149392,0.448011 0.098933,0.0990984 0.24998,0.147738 0.449665,0.147738 0.233105,0 0.405989,-0.0655142 0.520143,-0.194723 0.115642,-0.129208 0.172719,-0.323766 0.172719,-0.582183l0.104062 0.471503c-0.0033088,0.253288 -0.0436761,0.46472 -0.120771,0.634131 -0.0772604,0.17123 -0.191248,0.29713 -0.343949,0.381008 -0.152701,0.083878 -0.342295,0.125734 -0.568782,0.125734zm6.06039 -5.17612l-1.53363 6.29697c-0.0519481,0.209778 -0.139135,0.382497 -0.261726,0.520143 -0.12408,0.13748 -0.285218,0.241542 -0.484904,0.310365 -0.199686,0.068823 -0.439574,0.104062 -0.718009,0.104062l-0.137646 0 0 -0.88593 0.137646 0c0.229796,0 0.407644,-0.0486393 0.536852,-0.144264 0.127554,-0.0972786 0.213086,-0.245016 0.255108,-0.444702l1.2633 -5.75664 0.943007 0zm-3.48482 0l0.944496 0 1.09571 4.4093 -0.471503 1.09571 -1.5687 -5.50501zm6.1307 0l0.932915 0 0 5.10233 -0.932915 0 0 -5.10233zm-0.753413 3.60229c-0.265035,0 -0.491522,-0.0519481 -0.677807,-0.159319 -0.186285,-0.105716 -0.328894,-0.260071 -0.427827,-0.461412 -0.0972786,-0.20134 -0.147572,-0.444702 -0.147572,-0.72992l0 -2.25164 0.934569 0 0 2.23658c0,0.161138 0.0451651,0.285218 0.13748,0.374225 0.0923154,0.0871868 0.223178,0.132517 0.392589,0.132517 0.17123,0 0.303747,-0.0537679 0.399372,-0.15783 0.0939698,-0.105551 0.142609,-0.253288 0.142609,-0.447846l0 -0.889239 0.313839 0 0 0.904294c0,0.463066 -0.0923154,0.818762 -0.276946,1.07205 -0.186285,0.251799 -0.449665,0.377534 -0.790306,0.377534zm4.76847 -3.60229l0.93275 0 0 5.10233 -0.93275 0 0 -5.10233zm-2.00166 0l0.934569 0 0 5.10233 -0.934569 0 0 -5.10233zm0.555381 2.1527l2.03011 0 0 0.88593 -2.03011 0 0 -0.88593zm4.83878 3.02341c-0.308711,0 -0.573911,-0.0587311 -0.795269,-0.174539 -0.219869,-0.115642 -0.38928,-0.285218 -0.505088,-0.506577 -0.117462,-0.221524 -0.174539,-0.486558 -0.174539,-0.798743l0 -2.33039c0,-0.307056 0.0570767,-0.570602 0.174539,-0.788652 0.115808,-0.21805 0.285218,-0.382497 0.505088,-0.49665 0.221358,-0.112499 0.486558,-0.16941 0.795269,-0.16941 0.307056,0 0.570436,0.0569113 0.788652,0.16941 0.21805,0.114153 0.382497,0.278601 0.496485,0.49665 0.112499,0.21805 0.169576,0.481595 0.169576,0.788652l0 2.34561c0,0.306891 -0.0570767,0.572091 -0.169576,0.791795 -0.113988,0.218215 -0.278435,0.385971 -0.496485,0.500125 -0.218215,0.115642 -0.481595,0.172719 -0.788652,0.172719zm-0.0100918 -0.909423c0.166102,0 0.296964,-0.0519481 0.390934,-0.154355 0.0923154,-0.103896 0.1393,-0.24998 0.1393,-0.441228l0 -2.26504c0,-0.184631 -0.0469849,-0.32724 -0.1393,-0.429482 -0.0939698,-0.104062 -0.224833,-0.156175 -0.390934,-0.156175 -0.164447,0 -0.293656,0.0521135 -0.38928,0.156175 -0.0939698,0.102242 -0.142609,0.244851 -0.142609,0.429482l0 2.26504c0,0.18794 0.0469849,0.333858 0.140955,0.437919 0.0923154,0.105716 0.223178,0.157664 0.390934,0.157664zm4.96303 -2.16776l0 0.884276 -2.51667 0 0 -0.884276 2.51667 0zm3.15775 2.99843l0 -3.45984 0.117462 0.127554 -1.44462 3.33229 -0.748284 0 0 -5.09737 0.87071 0 0 3.45968 -0.117462 -0.127389 1.45471 -3.33229 0.736538 0 0 5.09737 -0.869055 0zm3.0067 0.0787493c-0.298619,0 -0.550418,-0.0469849 -0.758376,-0.140955 -0.209778,-0.09215 -0.367442,-0.228141 -0.478286,-0.404335 -0.109025,-0.177848 -0.164282,-0.392589 -0.164282,-0.644223l0 -0.471503 0.885765 0 0 0.323766c0,0.151047 0.0436761,0.268509 0.134337,0.352387 0.0904956,0.0822236 0.21805,0.124245 0.380842,0.124245 0.160973,0 0.286873,-0.0488047 0.375879,-0.144429 0.0904956,-0.0972786 0.135826,-0.229796 0.135826,-0.400861l0 -0.545455c0,-0.130863 -0.0436761,-0.233105 -0.127554,-0.305236 -0.0855324,-0.0721318 -0.202995,-0.10737 -0.354041,-0.10737l-0.600546 0 0 -0.822236 0.600546 0c0.114153,0 0.20316,-0.0251468 0.266854,-0.0770949 0.0636943,-0.0537679 0.0972786,-0.129208 0.0972786,-0.226487l0 -0.491687c0,-0.134172 -0.0402019,-0.238233 -0.120771,-0.312019 -0.0805692,-0.0739516 -0.192903,-0.110845 -0.337332,-0.110845 -0.144264,0 -0.254943,0.0368931 -0.333858,0.112499 -0.0787493,0.0754405 -0.117462,0.181157 -0.117462,0.315328l0 0.275292 -0.885765 0 0 -0.374225c0,-0.375879 0.117297,-0.669369 0.348913,-0.877493 0.23327,-0.208123 0.562164,-0.312019 0.988172,-0.312019 0.426173,0 0.756722,0.103896 0.989992,0.312019 0.234925,0.208123 0.352387,0.503433 0.352387,0.882621l0 0.639259c0,0.13748 -0.0352387,0.261726 -0.104062,0.370751 -0.068823,0.110679 -0.191248,0.20134 -0.367442,0.273472 0.206303,0.0653487 0.355696,0.15601 0.449665,0.271818 0.0923154,0.117462 0.1393,0.271818 0.1393,0.46472l0 0.748284c0,0.412772 -0.120771,0.733229 -0.364133,0.959716 -0.241542,0.228307 -0.585491,0.342295 -1.03185,0.342295zm1.95302 -0.958062l0.117462 0c0.110679,0 0.206303,-0.0418563 0.286873,-0.12408 0.0805692,-0.0805692 0.142609,-0.199686 0.184631,-0.355696 0.0435107,-0.15601 0.0636943,-0.345604 0.0636943,-0.567128l0 -3.17115 0.934569 0 0 3.3088c0,0.498305 -0.117462,0.872364 -0.354041,1.12234 -0.236579,0.251799 -0.5754,0.375879 -1.01679,0.375879l-0.216395 0 0 -0.588966zm-0.137646 0l0.932915 0 0 2.16776 -0.932915 0 0 -2.16776zm0 0l3.80876 0 0 0.884276 -3.80876 0 0 -0.884276zm3.42113 0l0.932915 0 0 2.16776 -0.932915 0 0 -2.16776zm-0.761685 -4.21805l0.932915 0 0 5.10233 -0.932915 0 0 -5.10233zm-1.24493 0l1.70635 0 0 0.884276 -1.70635 0 0 -0.884276zm5.69278 1.37083c0,-0.206303 -0.0554223,-0.365787 -0.164447,-0.478121 -0.110679,-0.114153 -0.26338,-0.169576 -0.459757,-0.169576 -0.174374,0 -0.308711,0.0554223 -0.405989,0.169576 -0.0956242,0.112334 -0.144264,0.271818 -0.144264,0.478121l-0.909423 0c0,-0.46472 0.129208,-0.82389 0.387625,-1.07883 0.260071,-0.253454 0.624204,-0.380842 1.09736,-0.380842 0.316983,0 0.5888,0.0569113 0.815287,0.172719 0.226653,0.114153 0.397717,0.280255 0.516834,0.498305 0.117462,0.218215 0.176193,0.481595 0.176193,0.788652l0 3.73149 -0.909423 0 0 -3.73149zm-0.929441 3.80528c-0.419555,0 -0.733229,-0.119117 -0.943007,-0.355696 -0.209778,-0.238233 -0.315494,-0.595583 -0.315494,-1.07552 0,-0.572091 0.130863,-1.00157 0.394408,-1.28514 0.261726,-0.283564 0.655969,-0.424519 1.18455,-0.424519l0.65266 0 0.068823 0.835636 -0.71652 0c-0.229796,0 -0.40268,0.0721318 -0.516834,0.21805 -0.113988,0.145918 -0.171065,0.365787 -0.171065,0.655969 0,0.20134 0.0486393,0.349078 0.149392,0.448011 0.098933,0.0990984 0.24998,0.147738 0.449665,0.147738 0.233105,0 0.405989,-0.0655142 0.520143,-0.194723 0.115642,-0.129208 0.172719,-0.323766 0.172719,-0.582183l0.104062 0.471503c-0.0033088,0.253288 -0.0436761,0.46472 -0.120771,0.634131 -0.0772604,0.17123 -0.191248,0.29713 -0.343949,0.381008 -0.152701,0.083878 -0.342295,0.125734 -0.568782,0.125734zm3.53859 -5.17612l0.934569 0 0 5.10233 -0.934569 0 0 -5.10233zm-0.914386 0l2.76334 0 0 0.884276 -2.76334 0 0 -0.884276zm5.00323 5.17612c-0.327074,0 -0.605675,-0.0670031 -0.837125,-0.199686 -0.231616,-0.132517 -0.407809,-0.32542 -0.530235,-0.577054 -0.12408,-0.251799 -0.184631,-0.557036 -0.184631,-0.914551l0 -1.78344c0,-0.377534 0.0587311,-0.699645 0.179668,-0.969808 0.119117,-0.268509 0.291836,-0.471503 0.518323,-0.610804 0.224833,-0.139135 0.498305,-0.209612 0.815453,-0.209612 0.320457,0 0.595583,0.0653487 0.825545,0.194557 0.229796,0.129208 0.404335,0.317148 0.523452,0.565473 0.120771,0.246671 0.179502,0.546944 0.179502,0.897676l0 1.34552 -2.38912 0 0 -0.771777 1.49491 0 0 -0.555381c0,-0.265035 -0.0554223,-0.469684 -0.164447,-0.614113 -0.110679,-0.144264 -0.266854,-0.216395 -0.469849,-0.216395 -0.196212,0 -0.348913,0.0772604 -0.456283,0.231616 -0.10919,0.154355 -0.162793,0.374059 -0.162793,0.657623l0 1.86418c0,0.248325 0.0570767,0.442882 0.171065,0.582183 0.115808,0.139135 0.276946,0.207958 0.486558,0.207958 0.194723,0 0.343949,-0.0502937 0.451485,-0.154355 0.105551,-0.102242 0.159319,-0.24998 0.159319,-0.439574l0 -0.0352387 0.894368 0 0 0.0352387c0,0.468195 -0.131028,0.830508 -0.392754,1.08562 -0.26338,0.256597 -0.632476,0.384151 -1.11242,0.384151zm2.14443 -0.88411c0.147572,0 0.258252,-0.0453305 0.328729,-0.134337 0.0721318,-0.0871868 0.10919,-0.221358 0.10919,-0.40268l0 -3.75499 0.934404 0 0 3.84399c0,0.291836 -0.0469849,0.533543 -0.140789,0.724792 -0.0939698,0.191248 -0.234925,0.335512 -0.422864,0.432791 -0.18794,0.097444 -0.424519,0.144429 -0.709737,0.144429l-0.098933 0 0 -0.854zm2.30524 -4.292l0.934569 0 0 5.10233 -0.934569 0 0 -5.10233zm-1.24328 0l1.70635 0 0 0.884276 -1.70635 0 0 -0.884276zm3.74506 4.21805l1.05699 0c0.181157,0 0.320457,-0.0536025 0.417736,-0.157664 0.0990984,-0.105716 0.147738,-0.251634 0.147738,-0.442882l0 -0.382662c0,-0.127389 -0.0218381,-0.236579 -0.0655142,-0.327074 -0.0453305,-0.090661 -0.109025,-0.159484 -0.194557,-0.206469 -0.0855324,-0.0469849 -0.186285,-0.0721318 -0.305402,-0.0721318l-1.05699 0 0 -0.88411 1.21979 0c0.281744,0 0.521797,0.0536025 0.723137,0.159319 0.199686,0.10737 0.352387,0.261726 0.456283,0.46472 0.105716,0.202995 0.15783,0.449665 0.15783,0.738358l0 0.63744c0,0.285218 -0.0554223,0.530235 -0.167921,0.733229 -0.110679,0.202995 -0.275126,0.35735 -0.491522,0.464886 -0.216395,0.105551 -0.474812,0.159319 -0.776905,0.159319l-1.12069 0 0 -0.884276zm-0.486558 -4.21805l0.934569 0 0 5.10233 -0.934569 0 0 -5.10233zm5.349 5.17612c-0.328894,0 -0.607495,-0.0587311 -0.835636,-0.177848 -0.229796,-0.117462 -0.405989,-0.290181 -0.52676,-0.518488 -0.120771,-0.226487 -0.181322,-0.501613 -0.181322,-0.82207l0 -2.15436c0,-0.337166 0.060551,-0.624204 0.181322,-0.862438 0.120771,-0.236579 0.296964,-0.417736 0.528415,-0.541815 0.231616,-0.1259 0.508397,-0.18794 0.833982,-0.18794 0.327074,0 0.60733,0.0620399 0.8406,0.18794 0.23145,0.12408 0.409298,0.306891 0.530069,0.546944 0.120936,0.241542 0.181322,0.530069 0.181322,0.867401l0 0.167756 -0.922823 0 0 -0.167756c0,-0.231616 -0.0554223,-0.412772 -0.162793,-0.540326 -0.109025,-0.127389 -0.258417,-0.191248 -0.452974,-0.191248 -0.196377,0 -0.349078,0.0620399 -0.459757,0.189594 -0.109025,0.1259 -0.164447,0.303747 -0.164447,0.531889l0 2.15436c0,0.206303 0.0554223,0.365787 0.164447,0.478121 0.110679,0.114153 0.26338,0.169576 0.459757,0.169576 0.194557,0 0.345604,-0.0587311 0.454629,-0.176193 0.110845,-0.117462 0.166102,-0.281909 0.166102,-0.491687l0 -0.162627 0.927952 0 0 0.162627c0,0.323931 -0.0603855,0.600712 -0.184631,0.830508 -0.122425,0.229961 -0.300273,0.4045 -0.531889,0.526926 -0.23327,0.120771 -0.515014,0.181157 -0.845563,0.181157zm3.80015 -2.97477l0.800398 -2.20134 0.958062 0 -1.09571 2.88593 -0.662752 -0.68459zm-1.45124 -2.20134l0.934569 0 0 5.10233 -0.934569 0 0 -5.10233zm1.44627 2.97825l0.68277 -0.662752 1.2585 2.78683 -0.993301 0 -0.94797 -2.12408zm-0.959716 -0.845728l1.7214 0 0 0.88593 -1.7214 0 0 -0.88593zm5.46812 2.96485l0 -3.45984 0.117462 0.127554 -1.44462 3.33229 -0.748284 0 0 -5.09737 0.87071 0 0 3.45968 -0.117462 -0.127389 1.45471 -3.33229 0.736538 0 0 5.09737 -0.869055 0zm4.02515 0l0 -3.45984 0.117462 0.127554 -1.44462 3.33229 -0.748284 0 0 -5.09737 0.87071 0 0 3.45968 -0.117462 -0.127389 1.45471 -3.33229 0.736538 0 0 5.09737 -0.869055 0zm-0.708082 -6.09563c-0.370751,0 -0.657623,-0.10737 -0.862438,-0.322111 -0.206303,-0.214741 -0.308711,-0.516834 -0.308711,-0.906114l0 -0.343949 0.758376 0 0 0.354041c0,0.152701 0.0352387,0.273472 0.10737,0.359004 0.0721318,0.083878 0.174539,0.127554 0.305402,0.127554l0.0871868 0c0.132683,0 0.23327,-0.0436761 0.305402,-0.127554 0.0721318,-0.0855324 0.109025,-0.206303 0.109025,-0.359004l0 -0.354041 0.756722 0 0 0.343949c0,0.38928 -0.102242,0.691373 -0.307056,0.906114 -0.204649,0.214741 -0.493176,0.322111 -0.864092,0.322111l-0.0871868 0zm6.13434 0.998264l0.93275 0 0 5.10233 -0.93275 0 0 -5.10233zm-1.44627 4.21805l1.97634 0 0 0.884276 -1.97634 0 0 -0.884276zm-0.555381 -4.21805l0.934569 0 0 5.10233 -0.934569 0 0 -5.10233zm2.7683 4.21805l0.932915 0 0 2.16776 -0.932915 0 0 -2.16776zm3.02672 0.958062c-0.327074,0 -0.605675,-0.0670031 -0.837125,-0.199686 -0.231616,-0.132517 -0.407809,-0.32542 -0.530235,-0.577054 -0.12408,-0.251799 -0.184631,-0.557036 -0.184631,-0.914551l0 -1.78344c0,-0.377534 0.0587311,-0.699645 0.179668,-0.969808 0.119117,-0.268509 0.291836,-0.471503 0.518323,-0.610804 0.224833,-0.139135 0.498305,-0.209612 0.815453,-0.209612 0.320457,0 0.595583,0.0653487 0.825545,0.194557 0.229796,0.129208 0.404335,0.317148 0.523452,0.565473 0.120771,0.246671 0.179502,0.546944 0.179502,0.897676l0 1.34552 -2.38912 0 0 -0.771777 1.49491 0 0 -0.555381c0,-0.265035 -0.0554223,-0.469684 -0.164447,-0.614113 -0.110679,-0.144264 -0.266854,-0.216395 -0.469849,-0.216395 -0.196212,0 -0.348913,0.0772604 -0.456283,0.231616 -0.10919,0.154355 -0.162793,0.374059 -0.162793,0.657623l0 1.86418c0,0.248325 0.0570767,0.442882 0.171065,0.582183 0.115808,0.139135 0.276946,0.207958 0.486558,0.207958 0.194723,0 0.343949,-0.0502937 0.451485,-0.154355 0.105551,-0.102242 0.159319,-0.24998 0.159319,-0.439574l0 -0.0352387 0.894368 0 0 0.0352387c0,0.468195 -0.131028,0.830508 -0.392754,1.08562 -0.26338,0.256597 -0.632476,0.384151 -1.11242,0.384151zm4.49004 -5.17612l0.93275 0 0 5.10233 -0.93275 0 0 -5.10233zm-2.00166 0l0.934569 0 0 5.10233 -0.934569 0 0 -5.10233zm0.555381 2.1527l2.03011 0 0 0.88593 -2.03011 0 0 -0.88593zm4.08041 -2.1527l0.934569 0 0 5.10233 -0.934569 0 0 -5.10233zm-0.914386 0l2.76334 0 0 0.884276 -2.76334 0 0 -0.884276zm3.54868 0l0.934569 0 0 7.17612 -0.934569 0 0 -7.17612zm1.87741 5.17612c-0.241542,0 -0.452974,-0.0770949 -0.630822,-0.23145 -0.177848,-0.154355 -0.305402,-0.367442 -0.380842,-0.644388l0.068823 -0.79014c0,0.16941 0.0234925,0.315328 0.0703119,0.437919 0.0488047,0.120771 0.117462,0.213086 0.206469,0.276781 0.090661,0.0636943 0.198031,0.0956242 0.322111,0.0956242 0.18794,0 0.333858,-0.0721318 0.441228,-0.21805 0.105716,-0.146083 0.159484,-0.350732 0.159484,-0.612458l0 -1.91778c0,-0.251634 -0.0537679,-0.449665 -0.159484,-0.592274 -0.10737,-0.142609 -0.253288,-0.213086 -0.441228,-0.213086 -0.12408,0 -0.23145,0.0319299 -0.322111,0.0939698 -0.0890066,0.0620399 -0.157664,0.151047 -0.206469,0.270163 -0.0468195,0.117462 -0.0703119,0.258252 -0.0703119,0.422699l-0.104062 -0.707917c0.105716,-0.298784 0.254943,-0.52858 0.448011,-0.691373 0.192903,-0.160973 0.407644,-0.243197 0.644223,-0.243197 0.241542,0 0.449665,0.0636943 0.62073,0.189594 0.172885,0.125734 0.303747,0.310365 0.390934,0.553562 0.0890066,0.241708 0.132683,0.535363 0.132683,0.879313l0 1.99156c0,0.347258 -0.0453305,0.644223 -0.1393,0.890893 -0.0939698,0.248325 -0.228141,0.436265 -0.405989,0.565473 -0.176193,0.129208 -0.390934,0.194557 -0.644388,0.194557z"/>
  <path class="fil7" d="M49.5543 53.2762c0.815949,0 1.47738,0.661428 1.47738,1.47754 0,0.815949 -0.661428,1.47738 -1.47738,1.47738 -0.816115,0 -1.47754,-0.661428 -1.47754,-1.47738 0,-0.816115 0.661428,-1.47754 1.47754,-1.47754z"/>
  <path class="fil7" d="M85.3757 53.2762c0.815949,0 1.47738,0.661428 1.47738,1.47754 0,0.815949 -0.661428,1.47738 -1.47738,1.47738 -0.816115,0 -1.47754,-0.661428 -1.47754,-1.47738 0,-0.816115 0.661428,-1.47754 1.47754,-1.47754z"/>
  <path class="fil14 str3" d="M130.933 31.919l11.6549 0c1.23203,0 2.24005,1.00802 2.24005,2.24005l0 11.6549c0,1.23203 -1.00802,2.24005 -2.24005,2.24005l-11.6549 0c-1.23203,0 -2.24005,-1.00802 -2.24005,-2.24005l0 -11.6549c0,-1.23203 1.00802,-2.24005 2.24005,-2.24005z"/>
  <path class="fil15 str4" d="M130.085 31.11l11.6549 0c1.23203,0 2.24005,1.00802 2.24005,2.24005l0 11.6549c0,1.23203 -1.00802,2.24005 -2.24005,2.24005l-11.6549 0c-1.23203,0 -2.24005,-1.00802 -2.24005,-2.24005l0 -11.6549c0,-1.23203 1.00802,-2.24005 2.24005,-2.24005z"/>
  <path class="fil8" d="M129.878 39.6511l4.77889 0c0.505253,0 0.918522,0.413269 0.918522,0.918522l0 4.77889c0,0.505253 -0.413269,0.918522 -0.918522,0.918522l-4.77889 0c-0.505253,0 -0.918522,-0.413269 -0.918522,-0.918522l0 -4.77889c0,-0.505253 0.413269,-0.918522 0.918522,-0.918522z"/>
  <path class="fil16" d="M137.304 39.6511l4.77889 0c0.505253,0 0.918522,0.413269 0.918522,0.918522l0 4.77889c0,0.505253 -0.413269,0.918522 -0.918522,0.918522l-4.77889 0c-0.505253,0 -0.918522,-0.413269 -0.918522,-0.918522l0 -4.77889c0,-0.505253 0.413269,-0.918522 0.918522,-0.918522z"/>
  <path class="fil17" d="M137.304 32.1979l4.77889 0c0.505253,0 0.918522,0.413269 0.918522,0.918522l0 4.77889c0,0.505253 -0.413269,0.918522 -0.918522,0.918522l-4.77889 0c-0.505253,0 -0.918522,-0.413269 -0.918522,-0.918522l0 -4.77889c0,-0.505253 0.413269,-0.918522 0.918522,-0.918522z"/>
  <path class="fil18" d="M129.851 32.1979l4.77889 0c0.505253,0 0.918522,0.413269 0.918522,0.918522l0 4.77889c0,0.505253 -0.413269,0.918522 -0.918522,0.918522l-4.77889 0c-0.505253,0 -0.918522,-0.413269 -0.918522,-0.918522l0 -4.77889c0,-0.505253 0.413269,-0.918522 0.918522,-0.918522z"/>
  <path class="fil0" d="M4.69551 61.6612l141.188 0c2.58268,0 4.69551,-2.11283 4.69551,-4.69551l0 -52.2704c0,-2.58268 -2.11283,-4.69535 -4.69551,-4.69535l-141.188 0c-2.58268,0 -4.69551,2.11267 -4.69551,4.69535l0 52.2704c0,2.58268 2.11283,4.69551 4.69551,4.69551z"/>
  <path class="fil19" d="M7.91332 54.4328l0.845232 -2.64439 0.781207 0 -1.13641 3.30168 -0.490033 -0.657292zm-0.0435107 0.572918l0.673671 -0.390603 1.23981 2.97097 -0.809828 0 -1.10365 -2.58036zm-1.27256 -3.21731l0.758045 0 0 5.79767 -0.758045 0 0 -5.79767zm0.394739 2.56002l1.55563 0 0 0.717182 -1.55563 0 0 -0.717182zm4.58913 3.29755c-0.303582,0 -0.562164,-0.0572422 -0.77856,-0.171561 -0.214906,-0.114319 -0.379684,-0.280255 -0.49268,-0.497974 -0.11283,-0.217884 -0.168749,-0.480437 -0.168749,-0.785343l0 -3.00637c0,-0.308876 0.0559187,-0.571595 0.168749,-0.789313 0.112995,-0.219208 0.277773,-0.38382 0.49268,-0.496816 0.216395,-0.112995 0.474978,-0.170072 0.77856,-0.170072 0.302093,0 0.561999,0.0570767 0.777071,0.170072 0.215072,0.112995 0.379684,0.277608 0.49268,0.496816 0.112995,0.217719 0.168749,0.480437 0.168749,0.789313l0 3.00637c0,0.304906 -0.0557532,0.567459 -0.168749,0.785343 -0.112995,0.217719 -0.277608,0.383655 -0.49268,0.497974 -0.215072,0.114319 -0.474978,0.171561 -0.777071,0.171561zm0 -0.737696c0.14294,0 0.265365,-0.0271321 0.368765,-0.0815618 0.102076,-0.0544297 0.179668,-0.133344 0.232774,-0.23691 0.0531062,-0.104723 0.0802383,-0.228638 0.0802383,-0.375548l0 -3.05402c0,-0.145587 -0.0271321,-0.270825 -0.0802383,-0.374225 -0.0531062,-0.104889 -0.130697,-0.183804 -0.232774,-0.238233 -0.1034,-0.0544297 -0.225825,-0.0815618 -0.368765,-0.0815618 -0.144264,0 -0.266854,0.0271321 -0.368931,0.0815618 -0.1034,0.0544297 -0.180991,0.133344 -0.233932,0.238233 -0.0531062,0.1034 -0.0790802,0.228638 -0.0790802,0.374225l0 3.05402c0,0.146911 0.025974,0.270825 0.0790802,0.375548 0.0529407,0.103565 0.130532,0.18248 0.233932,0.23691 0.102076,0.0544297 0.224667,0.0815618 0.368931,0.0815618zm4.14956 -5.11987l0.758045 0 0 5.79767 -0.758045 0 0 -5.79767zm-1.91364 0l0.762181 0 0 5.79767 -0.762181 0 0 -5.79767zm0.506411 2.5845l1.77864 0 0 0.717182 -1.77864 0 0 -0.717182zm4.88031 2.59525c-0.43825,0 -0.813798,-0.0747788 -1.12416,-0.223178 -0.311689,-0.149723 -0.547109,-0.366118 -0.710399,-0.650509 -0.161966,-0.284391 -0.242204,-0.627348 -0.242204,-1.02887l0 -0.956738c0,-0.401522 0.0802383,-0.744479 0.242204,-1.02887 0.163289,-0.284556 0.39871,-0.500952 0.710399,-0.649186 0.310365,-0.1484 0.685913,-0.223178 1.12416,-0.223178 0.43825,0 0.813964,0.0747788 1.12416,0.223178 0.311689,0.148234 0.548433,0.364629 0.710399,0.649186 0.161966,0.284391 0.243693,0.627348 0.243693,1.02887l0 0.956738c0,0.401522 -0.0817273,0.744479 -0.243693,1.02887 -0.161966,0.284391 -0.39871,0.500786 -0.710399,0.650509 -0.3102,0.1484 -0.685913,0.223178 -1.12416,0.223178zm-0.378361 -5.37845l0.756722 0 0 5.99637 -0.756722 0 0 -5.99637zm0.378361 4.6204c0.417901,0 0.741832,-0.0992639 0.973117,-0.297957 0.23145,-0.200182 0.347093,-0.481926 0.347093,-0.846555l0 -0.956738c0,-0.363471 -0.115642,-0.645215 -0.347093,-0.845232 -0.231285,-0.198693 -0.555216,-0.299446 -0.973117,-0.299446 -0.416412,0 -0.741667,0.100753 -0.973117,0.299446 -0.231285,0.200017 -0.346927,0.481761 -0.346927,0.845232l0 0.956738c0,0.364629 0.115642,0.646373 0.346927,0.846555 0.23145,0.198693 0.556705,0.297957 0.973117,0.297957zm2.71503 -4.42171l0.758045 0 0 5.79767 -0.758045 0 0 -5.79767zm0.394739 5.08049l2.09314 0 0 0.717182 -2.09314 0 0 -0.717182zm0 -2.52048l1.89445 0 0 0.717182 -1.89445 0 0 -0.717182zm0 -2.56002l2.09314 0 0 0.718505 -2.09314 0 0 -0.718505zm3.1111 2.83084l1.09554 0c0.1034,0 0.193234,-0.0231616 0.269501,-0.0708082 0.0762677,-0.0489702 0.133344,-0.117131 0.172885,-0.208289 0.0408636,-0.0898338 0.0598892,-0.19737 0.0598892,-0.322442l0 -0.888743c0,-0.130697 -0.0190256,-0.242369 -0.0598892,-0.33485 -0.0395401,-0.0939698 -0.0966168,-0.164613 -0.172885,-0.213583 -0.0762677,-0.0491356 -0.166102,-0.0736207 -0.269501,-0.0736207l-1.09554 0 0 -0.718505 1.08065 0c0.273472,0 0.506246,0.0516172 0.699479,0.155183 0.19191,0.104723 0.338821,0.25577 0.439574,0.454463 0.102076,0.200017 0.152535,0.439574 0.152535,0.718671l0 0.921334c0,0.273472 -0.0517827,0.507569 -0.153859,0.700968 -0.102076,0.194557 -0.250476,0.342957 -0.442386,0.445033 -0.193234,0.101911 -0.424519,0.153694 -0.695343,0.153694l-1.08065 0 0 -0.718505zm-0.419224 -2.83084l0.758045 0 0 5.79767 -0.758045 0 0 -5.79767zm3.56837 0l0.758045 0 0 5.79767 -0.758045 0 0 -5.79767zm0.394739 5.08049l2.09314 0 0 0.717182 -2.09314 0 0 -0.717182zm0 -2.52048l1.89445 0 0 0.717182 -1.89445 0 0 -0.717182zm0 -2.56002l2.09314 0 0 0.718505 -2.09314 0 0 -0.718505zm4.60551 0l0.758045 0 0 5.79767 -0.758045 0 0 -5.79767zm-1.91364 0l0.762181 0 0 5.79767 -0.762181 0 0 -5.79767zm0.506411 2.5845l1.77864 0 0 0.717182 -1.77864 0 0 -0.717182zm4.88031 -2.5845l0.758045 0 0 5.79767 -0.758045 0 0 -5.79767zm-1.40723 5.08049l1.78294 0 0 0.717182 -1.78294 0 0 -0.717182zm1.98561 0l0.758045 0 0 1.91761 -0.758045 0 0 -1.91761zm-2.49599 -5.08049l0.758045 0 0 5.79767 -0.758045 0 0 -5.79767zm5.88883 5.79354l0 -4.23791 0.0952933 0.1034 -1.58276 4.13451 -0.63016 0 0 -5.79354 0.72959 0 0 4.26653 -0.0952933 -0.1034 1.59087 -4.16313 0.622054 0 0 5.79354 -0.72959 0zm3.64464 0l0 -4.23791 0.0952933 0.1034 -1.58276 4.13451 -0.63016 0 0 -5.79354 0.72959 0 0 4.26653 -0.0952933 -0.1034 1.59087 -4.16313 0.622054 0 0 5.79354 -0.72959 0zm13.015 -3.14915l0.96501 -2.64439 0.781207 0 -1.25618 3.30168 -0.490033 -0.657292zm-0.0435107 0.572918l0.673671 -0.390603 1.35958 2.97097 -0.809828 0 -1.22343 -2.58036zm-2.1489 -0.390603l0.673671 0.390603 -1.22492 2.58036 -0.808504 0 1.35975 -2.97097zm-1.11738 -2.8267l0.78253 0 0.964845 2.64439 -0.491191 0.657292 -1.25618 -3.30168zm1.11324 2.56002l2.83084 0 0 0.717182 -2.83084 0 0 -0.717182zm1.03698 -2.56002l0.756722 0 0 5.79767 -0.756722 0 0 -5.79767zm3.30863 0l0.805692 0 0.826041 4.3509 -0.48722 0.649186 -1.14451 -5.00009zm1.97469 4.79742c-0.0529407,0.235421 -0.132021,0.432791 -0.238068,0.589297 -0.104889,0.156506 -0.238233,0.274796 -0.400199,0.35371 -0.161966,0.0775913 -0.353876,0.117131 -0.574242,0.117131l-0.355199 0 0 -0.758045 0.355199 0c0.106047,0 0.20134,-0.0231616 0.283068,-0.0694847 0.0830508,-0.0461577 0.15237,-0.115642 0.209612,-0.2068 0.0570767,-0.0924808 0.0992639,-0.205476 0.125238,-0.341633l0.925305 -4.4816 0.764994 0 -1.09571 4.79742zm1.85375 -1.96658l1.09554 0c0.1034,0 0.193234,-0.0231616 0.269501,-0.0708082 0.0762677,-0.0489702 0.133344,-0.117131 0.172885,-0.208289 0.0408636,-0.0898338 0.0598892,-0.19737 0.0598892,-0.322442l0 -0.888743c0,-0.130697 -0.0190256,-0.242369 -0.0598892,-0.33485 -0.0395401,-0.0939698 -0.0966168,-0.164613 -0.172885,-0.213583 -0.0762677,-0.0491356 -0.166102,-0.0736207 -0.269501,-0.0736207l-1.09554 0 0 -0.718505 1.08065 0c0.273472,0 0.506246,0.0516172 0.699479,0.155183 0.19191,0.104723 0.338821,0.25577 0.439574,0.454463 0.102076,0.200017 0.152535,0.439574 0.152535,0.718671l0 0.921334c0,0.273472 -0.0517827,0.507569 -0.153859,0.700968 -0.102076,0.194557 -0.250476,0.342957 -0.442386,0.445033 -0.193234,0.101911 -0.424519,0.153694 -0.695343,0.153694l-1.08065 0 0 -0.718505zm-0.419224 -2.83084l0.758045 0 0 5.79767 -0.758045 0 0 -5.79767zm5.48201 0l0.758045 0 0 5.79767 -0.758045 0 0 -5.79767zm-1.91364 0l0.762181 0 0 5.79767 -0.762181 0 0 -5.79767zm0.506411 2.5845l1.77864 0 0 0.717182 -1.77864 0 0 -0.717182zm4.023 -2.5845l0.69402 0 1.33924 5.79767 -0.812475 0 -0.873853 -4.60965 -0.872364 4.60965 -0.813798 0 1.33924 -5.79767zm-0.481761 3.82017l1.71743 0 0 0.713211 -1.71743 0 0 -0.713211zm3.07304 1.26843l0.00810655 0c0.0911573,0 0.168749,-0.0244851 0.234097,-0.0708082 0.0640252,-0.0461577 0.114319,-0.114319 0.1484,-0.202664 0.0354041,-0.0898338 0.0516172,-0.196046 0.0516172,-0.321284l0 -4.49384 0.758211 0 0 4.54149c0,0.264042 -0.0436761,0.490033 -0.132021,0.677807 -0.0871868,0.189098 -0.213748,0.332038 -0.37985,0.431467 -0.165936,0.0979404 -0.365953,0.146911 -0.60005,0.146911l-0.0885103 0 0 -0.709075zm2.07809 -5.0886l0.756722 0 0 5.79767 -0.756722 0 0 -5.79767zm-1.12813 0l1.49839 0 0 0.718505 -1.49839 0 0 -0.718505zm3.10167 5.08049l1.01249 0c0.103565,0 0.193399,-0.0244851 0.268178,-0.0721318 0.0762677,-0.0476467 0.134668,-0.117131 0.174208,-0.206965 0.0395401,-0.0911573 0.0598892,-0.198693 0.0598892,-0.323931l0 -0.808339c0,-0.130697 -0.0203491,-0.242204 -0.0598892,-0.336174 -0.0395401,-0.0924808 -0.0979404,-0.163289 -0.174208,-0.212259 -0.0747788,-0.0489702 -0.164613,-0.0734553 -0.268178,-0.0734553l-1.01249 0 0 -0.718671 0.9799 0c0.273472,0 0.507569,0.0517827 0.699479,0.155183 0.193234,0.104723 0.34031,0.25577 0.441063,0.454463 0.100587,0.200182 0.15237,0.439739 0.15237,0.718671l0 0.841096c0,0.273472 -0.0517827,0.507569 -0.153859,0.702292 -0.102076,0.193234 -0.25031,0.341468 -0.442221,0.443544 -0.193234,0.102076 -0.424684,0.153859 -0.696832,0.153859l-0.9799 0 0 -0.717182zm-0.419224 -5.08049l0.758045 0 0 5.79767 -0.758045 0 0 -5.79767zm3.82034 5.79767l-0.758045 0 0 -5.79767 0.758045 0 0 5.79767zm9.88073 -5.79767l0.758045 0 0 5.79767 -0.758045 0 0 -5.79767zm-1.91364 0l0.758045 0 0 5.79767 -0.758045 0 0 -5.79767zm0.506411 0l1.78278 0 0 0.718505 -1.78278 0 0 -0.718505zm2.76268 0l0.805692 0 0.826041 4.3509 -0.48722 0.649186 -1.14451 -5.00009zm1.97469 4.79742c-0.0529407,0.235421 -0.132021,0.432791 -0.238068,0.589297 -0.104889,0.156506 -0.238233,0.274796 -0.400199,0.35371 -0.161966,0.0775913 -0.353876,0.117131 -0.574242,0.117131l-0.355199 0 0 -0.758045 0.355199 0c0.106047,0 0.20134,-0.0231616 0.283068,-0.0694847 0.0830508,-0.0461577 0.15237,-0.115642 0.209612,-0.2068 0.0570767,-0.0924808 0.0992639,-0.205476 0.125238,-0.341633l0.925305 -4.4816 0.764994 0 -1.09571 4.79742zm1.85375 0.283068l1.11192 0c0.1034,0 0.193234,-0.0244851 0.269501,-0.0721318 0.0747788,-0.0476467 0.133344,-0.117131 0.172719,-0.206965 0.0395401,-0.0911573 0.0598892,-0.198693 0.0598892,-0.323931l0 -0.808339c0,-0.130697 -0.0203491,-0.242204 -0.0598892,-0.336174 -0.0393747,-0.0924808 -0.0979404,-0.163289 -0.172719,-0.212259 -0.0762677,-0.0489702 -0.166102,-0.0734553 -0.269501,-0.0734553l-1.11192 0 0 -0.718671 1.08065 0c0.273472,0 0.506246,0.0517827 0.699479,0.155183 0.19191,0.104723 0.338821,0.25577 0.439574,0.454463 0.102076,0.200182 0.152535,0.439739 0.152535,0.718671l0 0.841096c0,0.273472 -0.0517827,0.507569 -0.153859,0.702292 -0.102076,0.193234 -0.250476,0.341468 -0.442386,0.443544 -0.193234,0.102076 -0.424519,0.153859 -0.695343,0.153859l-1.08065 0 0 -0.717182zm-0.419224 -5.08049l0.758045 0 0 5.79767 -0.758045 0 0 -5.79767zm0.506411 0l1.94193 0 0 0.718505 -1.94193 0 0 -0.718505zm3.02126 5.0886l0.00810655 0c0.0911573,0 0.168749,-0.0244851 0.234097,-0.0708082 0.0640252,-0.0461577 0.114319,-0.114319 0.1484,-0.202664 0.0354041,-0.0898338 0.0516172,-0.196046 0.0516172,-0.321284l0 -4.49384 0.758211 0 0 4.54149c0,0.264042 -0.0436761,0.490033 -0.132021,0.677807 -0.0871868,0.189098 -0.213748,0.332038 -0.37985,0.431467 -0.165936,0.0979404 -0.365953,0.146911 -0.60005,0.146911l-0.0885103 0 0 -0.709075zm2.07809 -5.0886l0.756722 0 0 5.79767 -0.756722 0 0 -5.79767zm-1.12813 0l1.49839 0 0 0.718505 -1.49839 0 0 -0.718505zm4.80007 5.79354l0 -4.23791 0.0952933 0.1034 -1.58276 4.13451 -0.63016 0 0 -5.79354 0.72959 0 0 4.26653 -0.0952933 -0.1034 1.59087 -4.16313 0.622054 0 0 5.79354 -0.72959 0zm2.84308 -3.14915l0.845232 -2.64439 0.781207 0 -1.13641 3.30168 -0.490033 -0.657292zm-0.0435107 0.572918l0.673671 -0.390603 1.23981 2.97097 -0.809828 0 -1.10365 -2.58036zm-1.27256 -3.21731l0.758045 0 0 5.79767 -0.758045 0 0 -5.79767zm0.394739 2.56002l1.55563 0 0 0.717182 -1.55563 0 0 -0.717182zm4.20945 -2.56002l0.69402 0 1.33924 5.79767 -0.812475 0 -0.873853 -4.60965 -0.872364 4.60965 -0.813798 0 1.33924 -5.79767zm-0.481761 3.82017l1.71743 0 0 0.713211 -1.71743 0 0 -0.713211zm4.95112 -3.82017l0.758045 0 0 5.79767 -0.758045 0 0 -5.79767zm-1.40723 5.08049l1.78294 0 0 0.717182 -1.78294 0 0 -0.717182zm1.98561 0l0.758045 0 0 1.91761 -0.758045 0 0 -1.91761zm-2.49599 -5.08049l0.758045 0 0 5.79767 -0.758045 0 0 -5.79767zm5.88883 5.79354l0 -4.23791 0.0952933 0.1034 -1.58276 4.13451 -0.63016 0 0 -5.79354 0.72959 0 0 4.26653 -0.0952933 -0.1034 1.59087 -4.16313 0.622054 0 0 5.79354 -0.72959 0zm3.64464 0l0 -4.23791 0.0952933 0.1034 -1.58276 4.13451 -0.63016 0 0 -5.79354 0.72959 0 0 4.26653 -0.0952933 -0.1034 1.59087 -4.16313 0.622054 0 0 5.79354 -0.72959 0zm4.07065 0.0640252c-0.281579,0 -0.523948,-0.0585657 -0.725288,-0.175532 -0.201506,-0.117131 -0.356688,-0.28588 -0.462735,-0.509058 -0.106212,-0.221855 -0.159319,-0.48722 -0.159319,-0.798909l0 -2.94648c0,-0.313012 0.0531062,-0.581025 0.159319,-0.802879 0.106047,-0.221855 0.259906,-0.391927 0.461412,-0.509058 0.200017,-0.116966 0.442221,-0.175532 0.726612,-0.175532 0.284556,0 0.528084,0.0585657 0.72959,0.175532 0.202664,0.117131 0.356523,0.287203 0.461246,0.509058 0.104889,0.221855 0.156506,0.488544 0.156506,0.798909l0 0.247663 -0.764828 0 0 -0.247663c0,-0.156506 -0.0231616,-0.291339 -0.0679958,-0.402846 -0.0449996,-0.111672 -0.111672,-0.196046 -0.198693,-0.254612 -0.0885103,-0.0584003 -0.193234,-0.0883449 -0.315825,-0.0883449 -0.122425,0 -0.225825,0.0299446 -0.313012,0.0883449 -0.0856978,0.0585657 -0.15237,0.14294 -0.198693,0.254612 -0.0461577,0.111506 -0.0706428,0.247663 -0.0706428,0.406816l0 2.94648c0,0.156506 0.0244851,0.291339 0.0706428,0.402846 0.0463231,0.111672 0.112995,0.19737 0.198693,0.254612 0.0871868,0.0584003 0.190587,0.0883449 0.313012,0.0883449 0.122591,0 0.227314,-0.0299446 0.315825,-0.0883449 0.0870213,-0.0572422 0.153694,-0.14294 0.198693,-0.254612 0.0448342,-0.111506 0.0679958,-0.24634 0.0679958,-0.402846l0 -0.247663 0.764828 0 0 0.247663c0,0.311689 -0.0516172,0.577054 -0.156506,0.798909 -0.104723,0.223178 -0.258582,0.391927 -0.461246,0.509058 -0.201506,0.116966 -0.445033,0.175532 -0.72959,0.175532zm2.69617 -5.38258l0.758045 0 0 5.32269 -0.758045 0 0 -5.32269zm-1.02887 -0.474978l2.81446 0 0 0.718505 -2.81446 0 0 -0.718505zm4.27348 0l0.69402 0 1.33924 5.79767 -0.812475 0 -0.873853 -4.60965 -0.872364 4.60965 -0.813798 0 1.33924 -5.79767zm-0.481761 3.82017l1.71743 0 0 0.713211 -1.71743 0 0 -0.713211zm3.66366 -3.34519l0.758045 0 0 5.32269 -0.758045 0 0 -5.32269zm-1.02887 -0.474978l2.81446 0 0 0.718505 -2.81446 0 0 -0.718505zm3.21317 0l0.758045 0 0 5.79767 -0.758045 0 0 -5.79767zm0.394739 5.08049l2.09314 0 0 0.717182 -2.09314 0 0 -0.717182zm0 -2.52048l1.89445 0 0 0.717182 -1.89445 0 0 -0.717182zm0 -2.56002l2.09314 0 0 0.718505 -2.09314 0 0 -0.718505zm4.8095 5.79354l0 -4.23791 0.0952933 0.1034 -1.58276 4.13451 -0.63016 0 0 -5.79354 0.72959 0 0 4.26653 -0.0952933 -0.1034 1.59087 -4.16313 0.622054 0 0 5.79354 -0.72959 0zm0.370254 -7.42395c0,0.385144 -0.0911573,0.68459 -0.274961,0.896849 -0.183638,0.212259 -0.440897,0.319795 -0.772935,0.319795l-0.0327571 0c-0.332038,0 -0.589297,-0.107536 -0.772935,-0.319795 -0.183804,-0.212259 -0.274961,-0.511705 -0.274961,-0.896849l0.657292 0.00810655c0,0.193234 0.0340806,0.34428 0.102076,0.451816 0.0681612,0.107536 0.163455,0.161966 0.288527,0.161966l0.0327571 0c0.123749,0 0.220366,-0.0544297 0.288527,-0.161966 0.0679958,-0.107536 0.102076,-0.258582 0.102076,-0.451816l0.657292 -0.00810655z"/>
 </g>
</svg>
